<?xml version="1.0" encoding="UTF-8"?>
<svg version="1.1" xmlns="http://www.w3.org/2000/svg" width="408" height="612">
<path d="M0 0 C1.36388966 -0.00807831 1.36388966 -0.00807831 2.75533265 -0.01631981 C5.80302432 -0.03063058 8.85028356 -0.02348786 11.897995 -0.01637268 C14.08277232 -0.02207468 16.26754666 -0.02903828 18.45231628 -0.03717041 C24.38836129 -0.05513761 30.32425876 -0.05392647 36.26032281 -0.04822803 C41.21557501 -0.04514071 46.17079869 -0.05122369 51.12604684 -0.05726677 C63.48613722 -0.07212658 75.84615532 -0.06848874 88.20624443 -0.05640347 C98.26484878 -0.04709356 108.32330015 -0.05642857 118.38188171 -0.07887268 C130.06891673 -0.10485496 141.75584809 -0.11731111 153.44291276 -0.11068493 C159.62696704 -0.10731359 165.81087876 -0.10974212 171.9949131 -0.12693596 C177.81195673 -0.14240279 183.62867099 -0.13845209 189.4457016 -0.11963081 C191.5789833 -0.11594396 193.71228939 -0.11905616 195.84554863 -0.1295166 C198.76150671 -0.1427216 201.67637369 -0.1311828 204.59228516 -0.11352539 C205.4332533 -0.1231304 206.27422144 -0.1327354 207.14067346 -0.14263147 C212.85774659 -0.07157521 217.20329914 1.1917453 221.98661804 4.38768005 C227.07510634 9.73711647 227.13284089 14.30624277 227.12033081 21.39506531 C227.12259637 22.32782311 227.12486192 23.26058092 227.12719613 24.22160411 C227.13354804 27.36063405 227.132706 30.49962094 227.13188171 33.63865662 C227.1348725 35.88387101 227.13827484 38.1290849 227.14205933 40.3742981 C227.15091268 46.48390249 227.15323803 52.59349288 227.15387511 58.70310307 C227.15482339 63.80000353 227.15850084 68.89690072 227.16204721 73.99379992 C227.16973133 85.33145275 227.17271537 96.6690969 227.17204186 108.00675145 C227.1720019 108.68723816 227.17196194 109.36772487 227.17192078 110.0688324 C227.1718799 110.7501505 227.17183902 111.43146861 227.1717969 112.13343272 C227.17139062 123.17012163 227.18095478 134.2067764 227.19505914 145.24345544 C227.20942785 156.57648212 227.21614595 167.90948696 227.21546537 179.24252486 C227.21521023 185.60483181 227.21807 191.96710014 227.22864342 198.32939911 C227.23831794 204.31458234 227.23840796 210.29968999 227.23112679 216.28487587 C227.23008008 218.48146741 227.23244894 220.67806365 227.23848724 222.87464714 C227.24619798 225.87397392 227.24156826 228.87303913 227.2338562 231.87236023 C227.23899976 232.74095114 227.24414333 233.60954205 227.24944276 234.5044539 C227.21658099 240.29096052 226.9761069 245.83564607 223.28739929 250.56736755 C222.63126648 251.12682068 221.97513367 251.6862738 221.29911804 252.26268005 C220.65587585 252.83760193 220.01263367 253.4125238 219.34989929 254.00486755 C214.0002388 257.13508212 207.19100527 256.53153227 201.14360046 256.5146637 C200.27684535 256.51622369 199.41009024 256.51778368 198.51706982 256.51939094 C195.62539129 256.52336566 192.73376567 256.52022499 189.84208679 256.51707458 C187.7637682 256.51843019 185.68544985 256.52021102 183.60713196 256.52238464 C177.97088659 256.52694001 172.33465954 256.52517719 166.69841385 256.52200556 C160.79732972 256.51947218 154.89624715 256.52182223 148.99516296 256.52339172 C139.08573627 256.52521055 129.17631704 256.5228146 119.26689148 256.51805115 C107.81354392 256.51260908 96.36021416 256.51437194 84.90686703 256.51987755 C75.06975369 256.52441682 65.2326457 256.52505524 55.39553165 256.52243888 C49.52178722 256.5208806 43.64805115 256.52067009 37.77430725 256.52397537 C32.25200442 256.52686587 26.72972452 256.52485665 21.20742416 256.51908112 C19.18176181 256.51775986 17.15609753 256.51813688 15.13043594 256.52034378 C12.36347652 256.52308017 9.59659039 256.51964368 6.82963562 256.5146637 C5.63006115 256.51800978 5.63006115 256.51800978 4.40625286 256.52142346 C-8.59322048 256.47610956 -8.59322048 256.47610956 -12.76338196 252.76268005 C-13.31510071 252.29603943 -13.86681946 251.8293988 -14.43525696 251.34861755 C-19.24075554 245.37742872 -19.52251007 239.13699356 -19.69081116 231.76911926 C-19.72386124 230.75649627 -19.75691133 229.74387328 -19.79096293 228.70056474 C-20.09715865 218.56334475 -20.16884136 208.42578609 -20.17451477 198.28465271 C-20.17916244 196.29588737 -20.18418957 194.30712289 -20.18955994 192.31835938 C-20.20247633 186.99903909 -20.2090843 181.67973127 -20.21357059 176.36039782 C-20.21652809 173.02793117 -20.22063694 169.69546776 -20.22507477 166.36300278 C-20.2386786 155.90699491 -20.24838657 145.45099464 -20.25227666 134.99497855 C-20.25677664 122.97314228 -20.27444367 110.9514186 -20.30327725 98.92961657 C-20.32489324 89.59065827 -20.33498047 80.25173174 -20.33631778 70.91274869 C-20.33736343 65.3521286 -20.3432236 59.79161541 -20.36113739 54.23102188 C-20.37762242 49.01542252 -20.3797715 43.8000106 -20.37099838 38.58439445 C-20.37022896 36.67565724 -20.37455824 34.76690987 -20.38445663 32.85819817 C-20.39720781 30.24586561 -20.39128303 27.63419456 -20.38087463 25.02186584 C-20.38893104 24.27390767 -20.39698744 23.52594949 -20.40528798 22.75532591 C-20.34307091 16.04379891 -18.92717027 8.30146837 -14.01338196 3.38768005 C-9.45448543 -0.14033656 -5.52182128 -0.03915058 0 0 Z " fill="#FDFDFD" transform="translate(100.01338195800781,168.61231994628906)"/>
<path d="M0 0 C1.54675415 -0.01418472 1.54675415 -0.01418472 3.12475586 -0.02865601 C4.23729736 -0.02258331 5.34983887 -0.01651062 6.49609375 -0.01025391 C7.63892822 -0.01312408 8.7817627 -0.01599426 9.95922852 -0.01895142 C12.3767954 -0.02099398 14.79437874 -0.01545079 17.21191406 -0.00292969 C20.9189946 0.01312039 24.62498475 -0.00277281 28.33203125 -0.02197266 C30.67838783 -0.01999026 33.02474373 -0.01614666 35.37109375 -0.01025391 C37.03990601 -0.01936295 37.03990601 -0.01936295 38.74243164 -0.02865601 C39.77360107 -0.01919952 40.80477051 -0.00974304 41.8671875 0 C43.22928345 0.00358017 43.22928345 0.00358017 44.61889648 0.00723267 C47.50428164 0.48210693 48.20008797 1.05261009 49.93359375 3.38818359 C50.31111717 6.12278748 50.31111717 6.12278748 50.31454468 9.49926758 C50.32723389 11.41737747 50.32723389 11.41737747 50.34017944 13.37423706 C50.33434633 14.79425176 50.32820181 16.2142652 50.32177734 17.63427734 C50.32584172 19.12737411 50.33118285 20.62046787 50.33770752 22.11355591 C50.35140299 26.1713763 50.34607336 30.22896829 50.33657026 34.28679276 C50.32898518 38.52949905 50.33601607 42.77218553 50.34072876 47.01489258 C50.34618968 54.14033527 50.3389859 61.26568474 50.32470703 68.39111328 C50.30837984 76.63398045 50.31366811 84.87662503 50.33018625 93.11948681 C50.34379156 100.19131726 50.34572546 107.26308062 50.33787024 114.33491993 C50.33318845 118.56095339 50.3325827 122.78688216 50.34247971 127.01290894 C50.35113326 130.98561927 50.34515722 134.95804207 50.32779694 138.93072128 C50.32382343 140.39043576 50.32498088 141.85017436 50.33158493 143.3098793 C50.33975558 145.29894407 50.32770311 147.28806159 50.31454468 149.27709961 C50.3134136 150.39133804 50.31228252 151.50557648 50.31111717 152.65357971 C49.93359375 155.38818359 49.93359375 155.38818359 48.5544529 157.24631691 C46.27784743 158.85014531 44.63745866 158.76908573 41.8671875 158.77636719 C40.83601807 158.78582367 39.80484863 158.79528015 38.74243164 158.80502319 C37.62989014 158.7989505 36.51734863 158.79287781 35.37109375 158.78662109 C34.22825928 158.78949127 33.0854248 158.79236145 31.90795898 158.7953186 C29.4903921 158.79736116 27.07280876 158.79181797 24.65527344 158.77929688 C20.9481929 158.7632468 17.24220275 158.77914 13.53515625 158.79833984 C11.18879967 158.79635745 8.84244377 158.79251385 6.49609375 158.78662109 C4.82728149 158.79573013 4.82728149 158.79573013 3.12475586 158.80502319 C1.57800171 158.79083847 1.57800171 158.79083847 0 158.77636719 C-1.36209595 158.77278702 -1.36209595 158.77278702 -2.75170898 158.76913452 C-5.63709414 158.29426026 -6.33290047 157.7237571 -8.06640625 155.38818359 C-8.44392967 152.65357971 -8.44392967 152.65357971 -8.44735718 149.27709961 C-8.45581665 147.99835968 -8.46427612 146.71961975 -8.47299194 145.40213013 C-8.46715883 143.98211543 -8.46101431 142.56210199 -8.45458984 141.14208984 C-8.45865422 139.64899308 -8.46399535 138.15589932 -8.47052002 136.66281128 C-8.48421549 132.60499089 -8.47888586 128.5473989 -8.46938276 124.48957443 C-8.46179768 120.24686814 -8.46882857 116.00418165 -8.47354126 111.76147461 C-8.47900218 104.63603192 -8.4717984 97.51068245 -8.45751953 90.38525391 C-8.44119234 82.14238673 -8.44648061 73.89974216 -8.46299875 65.65688038 C-8.47660406 58.58504993 -8.47853796 51.51328656 -8.47068274 44.44144726 C-8.46600095 40.2154138 -8.4653952 35.98948503 -8.47529221 31.76345825 C-8.48394576 27.79074792 -8.47796972 23.81832511 -8.46060944 19.8456459 C-8.45663593 18.38593143 -8.45779338 16.92619283 -8.46439743 15.46648788 C-8.47256808 13.47742312 -8.46051561 11.4883056 -8.44735718 9.49926758 C-8.44566056 7.82790993 -8.44566056 7.82790993 -8.44392967 6.12278748 C-8.06640625 3.38818359 -8.06640625 3.38818359 -6.6872654 1.53005028 C-4.41065993 -0.07377813 -2.77027116 0.00728146 0 0 Z " fill="#3F8DF1" transform="translate(183.06640625,236.61181640625)"/>
<path d="M0 0 C1.14020426 -0.00935994 1.14020426 -0.00935994 2.30344296 -0.01890898 C4.8524311 -0.0348734 7.40046753 -0.02222178 9.94946289 -0.00964355 C11.77605752 -0.01506316 13.60264778 -0.02218491 15.42922974 -0.03088379 C20.39202184 -0.04913932 25.35448181 -0.0420404 30.31727982 -0.02936745 C35.50710201 -0.01925134 40.69689546 -0.02862926 45.88671875 -0.03491211 C54.60267247 -0.04219256 63.31849068 -0.03259035 72.03442383 -0.0135498 C82.11606296 0.00821967 92.19737853 0.00116858 102.27900982 -0.02085543 C110.92964037 -0.03899807 119.58017342 -0.0415733 128.23081684 -0.03110075 C133.39977129 -0.02485958 138.56857359 -0.02404733 143.73751831 -0.0372467 C148.59673102 -0.04878804 153.45552595 -0.04081089 158.31469345 -0.01766968 C160.09972311 -0.0123734 161.88478784 -0.01391203 163.66980362 -0.02272034 C166.1034257 -0.0336235 168.53570235 -0.01997691 170.96923828 0 C172.03324309 -0.01338433 172.03324309 -0.01338433 173.11874294 -0.02703905 C176.50297338 0.02698664 178.21429064 0.29802741 180.92198181 2.40052032 C182.74644914 4.86104547 182.99856927 6.09804252 183.01586914 9.13293457 C183.02360352 10.44004395 183.02360352 10.44004395 183.03149414 11.77355957 C183.01602539 12.67590332 183.00055664 13.57824707 182.98461914 14.50793457 C183.00782227 15.8614502 183.00782227 15.8614502 183.03149414 17.24230957 C183.02633789 18.11371582 183.02118164 18.98512207 183.01586914 19.88293457 C183.01135742 20.67441895 183.0068457 21.46590332 183.00219727 22.28137207 C182.26469369 25.45402898 181.0525043 26.51355643 178.48461914 28.50793457 C175.84073343 28.90317475 173.61148458 29.05329475 170.96923828 29.02259827 C170.20910211 29.02954379 169.44896593 29.03648932 168.66579533 29.04364532 C166.1168242 29.06195263 163.56877988 29.05164113 161.01977539 29.04138184 C159.19317934 29.0484384 157.36658914 29.05718231 155.54000854 29.06748962 C150.57722965 29.09002163 145.61476909 29.08703518 140.65195847 29.07816815 C136.51155581 29.07306428 132.3712133 29.08034585 128.23081684 29.08764023 C118.46542942 29.104651 108.70019821 29.1010611 98.93481445 29.08435059 C88.85312579 29.06742217 78.77186987 29.08327109 68.69022846 29.11557347 C60.03959348 29.1422429 51.38909342 29.1495527 42.73842144 29.14105839 C37.56942326 29.13612215 32.4006856 29.13838256 27.23171997 29.1588459 C22.37244225 29.17716184 17.51378872 29.17129455 12.65454483 29.1466465 C10.8695113 29.14162585 9.08443054 29.14516077 7.29943466 29.15779495 C4.86556622 29.17366131 2.43376952 29.15883814 0 29.13612366 C-0.70933654 29.14795939 -1.41867308 29.15979511 -2.14950466 29.1719895 C-5.86704987 29.1013148 -7.25960278 28.75965995 -9.95274353 26.10919094 C-11.55745974 23.43788764 -12.02801893 22.07466365 -12.04663086 19.00402832 C-12.05178711 18.18096191 -12.05694336 17.35789551 -12.06225586 16.5098877 C-12.04678711 15.66361816 -12.03131836 14.81734863 -12.01538086 13.94543457 C-12.03084961 13.09529785 -12.04631836 12.24516113 -12.06225586 11.3692627 C-12.05709961 10.54748535 -12.05194336 9.72570801 -12.04663086 8.87902832 C-12.04211914 8.13580322 -12.03760742 7.39257812 -12.03295898 6.62683105 C-10.50006133 0.35135053 -5.59482613 -0.07037844 0 0 Z " fill="#1B1E23" transform="translate(118.515380859375,201.4920654296875)"/>
<path d="M0 0 C9.24 0 18.48 0 28 0 C28 44.22 28 88.44 28 134 C18.76 134 9.52 134 0 134 C0 89.78 0 45.56 0 0 Z " fill="#FDFEFD" transform="translate(190,247)"/>
<path d="M0 0 C1.54675415 -0.01418472 1.54675415 -0.01418472 3.12475586 -0.02865601 C4.23729736 -0.02258331 5.34983887 -0.01651062 6.49609375 -0.01025391 C7.63892822 -0.01312408 8.7817627 -0.01599426 9.95922852 -0.01895142 C12.3767954 -0.02099398 14.79437874 -0.01545079 17.21191406 -0.00292969 C20.9189946 0.01312039 24.62498475 -0.00277281 28.33203125 -0.02197266 C30.67838783 -0.01999026 33.02474373 -0.01614666 35.37109375 -0.01025391 C37.03990601 -0.01936295 37.03990601 -0.01936295 38.74243164 -0.02865601 C39.77360107 -0.01919952 40.80477051 -0.00974304 41.8671875 0 C43.22928345 0.00358017 43.22928345 0.00358017 44.61889648 0.00723267 C47.50428164 0.48210693 48.20008797 1.05261009 49.93359375 3.38818359 C50.31111717 6.12278748 50.31111717 6.12278748 50.31454468 9.49926758 C50.32723389 11.41737747 50.32723389 11.41737747 50.34017944 13.37423706 C50.33434633 14.79425176 50.32820181 16.2142652 50.32177734 17.63427734 C50.32584172 19.12737411 50.33118285 20.62046787 50.33770752 22.11355591 C50.35140299 26.1713763 50.34607336 30.22896829 50.33657026 34.28679276 C50.32898518 38.52949905 50.33601607 42.77218553 50.34072876 47.01489258 C50.34618968 54.14033527 50.3389859 61.26568474 50.32470703 68.39111328 C50.30837984 76.63398045 50.31366811 84.87662503 50.33018625 93.11948681 C50.34379156 100.19131726 50.34572546 107.26308062 50.33787024 114.33491993 C50.33318845 118.56095339 50.3325827 122.78688216 50.34247971 127.01290894 C50.35113326 130.98561927 50.34515722 134.95804207 50.32779694 138.93072128 C50.32382343 140.39043576 50.32498088 141.85017436 50.33158493 143.3098793 C50.33975558 145.29894407 50.32770311 147.28806159 50.31454468 149.27709961 C50.3134136 150.39133804 50.31228252 151.50557648 50.31111717 152.65357971 C49.93359375 155.38818359 49.93359375 155.38818359 48.5544529 157.24631691 C46.27784743 158.85014531 44.63745866 158.76908573 41.8671875 158.77636719 C40.83601807 158.78582367 39.80484863 158.79528015 38.74243164 158.80502319 C37.62989014 158.7989505 36.51734863 158.79287781 35.37109375 158.78662109 C34.22825928 158.78949127 33.0854248 158.79236145 31.90795898 158.7953186 C29.4903921 158.79736116 27.07280876 158.79181797 24.65527344 158.77929688 C20.9481929 158.7632468 17.24220275 158.77914 13.53515625 158.79833984 C11.18879967 158.79635745 8.84244377 158.79251385 6.49609375 158.78662109 C4.82728149 158.79573013 4.82728149 158.79573013 3.12475586 158.80502319 C1.57800171 158.79083847 1.57800171 158.79083847 0 158.77636719 C-1.36209595 158.77278702 -1.36209595 158.77278702 -2.75170898 158.76913452 C-5.63709414 158.29426026 -6.33290047 157.7237571 -8.06640625 155.38818359 C-8.44392967 152.65357971 -8.44392967 152.65357971 -8.44735718 149.27709961 C-8.45581665 147.99835968 -8.46427612 146.71961975 -8.47299194 145.40213013 C-8.46715883 143.98211543 -8.46101431 142.56210199 -8.45458984 141.14208984 C-8.45865422 139.64899308 -8.46399535 138.15589932 -8.47052002 136.66281128 C-8.48421549 132.60499089 -8.47888586 128.5473989 -8.46938276 124.48957443 C-8.46179768 120.24686814 -8.46882857 116.00418165 -8.47354126 111.76147461 C-8.47900218 104.63603192 -8.4717984 97.51068245 -8.45751953 90.38525391 C-8.44119234 82.14238673 -8.44648061 73.89974216 -8.46299875 65.65688038 C-8.47660406 58.58504993 -8.47853796 51.51328656 -8.47068274 44.44144726 C-8.46600095 40.2154138 -8.4653952 35.98948503 -8.47529221 31.76345825 C-8.48394576 27.79074792 -8.47796972 23.81832511 -8.46060944 19.8456459 C-8.45663593 18.38593143 -8.45779338 16.92619283 -8.46439743 15.46648788 C-8.47256808 13.47742312 -8.46051561 11.4883056 -8.44735718 9.49926758 C-8.44566056 7.82790993 -8.44566056 7.82790993 -8.44392967 6.12278748 C-8.06640625 3.38818359 -8.06640625 3.38818359 -6.6872654 1.53005028 C-4.41065993 -0.07377813 -2.77027116 0.00728146 0 0 Z M-6.06640625 2.38818359 C-7.42676003 5.10889115 -7.20174376 7.25598289 -7.21357727 10.30308533 C-7.22073257 11.56362228 -7.22788788 12.82415924 -7.23526001 14.12289429 C-7.23810037 15.52764868 -7.24081208 16.93240334 -7.2434082 18.3371582 C-7.24967171 19.81040101 -7.25631841 21.28364223 -7.26332092 22.75688171 C-7.28073766 26.76509584 -7.29128388 30.77329804 -7.29952645 34.78154063 C-7.30467374 37.28383705 -7.3107495 39.78612975 -7.31703758 42.28842354 C-7.33608902 50.11218363 -7.35032191 57.93593428 -7.35864955 65.75971311 C-7.36843174 74.80140436 -7.39477687 83.84285142 -7.43515044 92.88445657 C-7.46526423 99.86707838 -7.48011378 106.84962999 -7.48343056 113.8323155 C-7.48578592 118.00589895 -7.49480919 122.17922152 -7.51989174 126.35273552 C-7.54309586 130.2770284 -7.54743699 134.20088721 -7.53713036 138.12523079 C-7.53663305 139.5672258 -7.54301059 141.00924163 -7.5566864 142.45117188 C-7.57428357 144.41613538 -7.56495379 146.3812856 -7.55415344 148.34629822 C-7.5565418 149.44708678 -7.55893015 150.54787535 -7.56139088 151.68202114 C-7.31369131 154.49951053 -7.31369131 154.49951053 -5.18462276 156.24325371 C-2.60978944 157.63499228 -0.94191943 157.75087688 1.97753906 157.72875977 C2.97827454 157.72853317 3.97901001 157.72830658 5.0100708 157.72807312 C6.08311462 157.71258926 7.15615845 157.69710541 8.26171875 157.68115234 C9.36586121 157.6769075 10.47000366 157.67266266 11.60760498 157.66828918 C15.13318291 157.65150027 18.65818866 157.61384668 22.18359375 157.57568359 C24.57421049 157.56063708 26.9648362 157.54694862 29.35546875 157.53466797 C35.21503888 157.50159603 41.07427544 157.45139406 46.93359375 157.38818359 C48.0173138 154.13702345 48.06209187 151.77425939 48.06730652 148.35302734 C48.0715715 147.09111572 48.07583649 145.8292041 48.08023071 144.52905273 C48.07988119 143.12792966 48.07941966 141.7268066 48.07885742 140.32568359 C48.08184907 138.85229405 48.08525161 137.3789053 48.08903503 135.90551758 C48.0978774 131.90148508 48.10021321 127.89747394 48.10085082 123.89343262 C48.10179968 120.55328139 48.1054776 117.21313515 48.10902292 113.87298584 C48.11716792 105.99523669 48.11960706 98.11749897 48.11889648 90.23974609 C48.11829526 82.1059904 48.12885582 73.97230094 48.14464015 65.83856201 C48.15770119 58.86016527 48.16308101 51.88179022 48.16244107 44.90338135 C48.16218572 40.73325269 48.16505773 36.56318292 48.17561913 32.39306641 C48.18527631 28.47295478 48.18539575 24.55295863 48.17810249 20.63284302 C48.17705377 19.19247266 48.17943654 17.7520952 48.18546295 16.31173706 C48.1931447 14.34895241 48.18735605 12.38612868 48.18083191 10.42333984 C48.18137668 9.3238501 48.18192144 8.22436035 48.18248272 7.09155273 C48.12948537 4.1662644 48.12948537 4.1662644 45.93359375 1.38818359 C43.77893645 0.94390712 43.77893645 0.94390712 41.25610352 1.03173828 C40.28492081 1.02873718 39.3137381 1.02573608 38.31312561 1.02264404 C36.73500343 1.04116425 36.73500343 1.04116425 35.125 1.06005859 C33.50850807 1.06286835 33.50850807 1.06286835 31.85935974 1.06573486 C29.5770255 1.07246659 27.294703 1.08640311 25.01245117 1.10693359 C21.51405138 1.138024 18.01610222 1.14789684 14.51757812 1.15380859 C12.30337991 1.16298097 10.08918629 1.17335749 7.875 1.18505859 C6.82494278 1.18930847 5.77488556 1.19355835 4.69300842 1.19793701 C3.23150612 1.21234833 3.23150612 1.21234833 1.74047852 1.22705078 C0.45380028 1.23729279 0.45380028 1.23729279 -0.85887146 1.2477417 C-3.24264162 1.30506376 -3.24264162 1.30506376 -6.06640625 2.38818359 Z " fill="#4187DB" transform="translate(183.06640625,236.61181640625)"/>
<path d="M0 0 C0.66 0 1.32 0 2 0 C3.3731969 2.7463938 3.13544993 4.94679619 3.14717102 8.02206421 C3.15432632 9.30639847 3.16148163 10.59073273 3.16885376 11.91398621 C3.17169414 13.34548926 3.17440585 14.77699258 3.17700195 16.20849609 C3.18326544 17.70967263 3.18991214 19.21084761 3.19691467 20.71202087 C3.21433304 24.79674609 3.22487835 28.88145959 3.2331202 32.96621275 C3.23826777 35.51675972 3.24434356 38.06730304 3.25063133 40.61784744 C3.26968433 48.59378141 3.28391616 56.56970611 3.2922433 64.54565847 C3.30202217 73.76052927 3.32835804 82.97516027 3.36874419 92.18994653 C3.39887173 99.30761465 3.4137089 106.42521389 3.41702431 113.54294455 C3.41937834 117.79648253 3.42838433 122.04976436 3.45348549 126.3032341 C3.47671317 130.30385976 3.48102111 134.30405965 3.47072411 138.30473518 C3.47022736 139.77372336 3.47658862 141.24273212 3.49028015 142.71165657 C3.50791546 144.71568313 3.49853495 146.71989338 3.48774719 148.72396851 C3.49013555 149.84595831 3.4925239 150.96794811 3.49498463 152.12393761 C2.88569975 155.664131 1.80540776 156.82542391 -1 159 C-6.09459814 160.45029392 -11.41428428 160.07340074 -16.66796875 159.94921875 C-17.58459793 159.9303511 -18.50122711 159.91148346 -19.44563293 159.89204407 C-21.37454707 159.8503231 -23.30339841 159.80560322 -25.23217773 159.75805664 C-28.18786506 159.68749128 -31.14356557 159.63333354 -34.09960938 159.58007812 C-35.97658542 159.5374562 -37.85353988 159.49386985 -39.73046875 159.44921875 C-40.6148613 159.43453049 -41.49925385 159.41984222 -42.41044617 159.40470886 C-43.23172501 159.38161148 -44.05300385 159.3585141 -44.89916992 159.3347168 C-45.62053635 159.31837692 -46.34190277 159.30203705 -47.08512878 159.28520203 C-49 159 -49 159 -52 157 C-51.37803741 156.99191315 -50.75607483 156.98382629 -50.11526489 156.97549438 C-43.65914984 156.88963493 -37.20334846 156.79014024 -30.74755859 156.68261719 C-28.33615372 156.64426353 -25.92469038 156.6094221 -23.51318359 156.578125 C-20.05284687 156.53261297 -16.59291492 156.47459596 -13.1328125 156.4140625 C-12.04944611 156.40251129 -10.96607971 156.39096008 -9.84988403 156.37905884 C-8.8489975 156.35918915 -7.84811096 156.33931946 -6.81689453 156.31884766 C-5.49118942 156.29886215 -5.49118942 156.29886215 -4.13870239 156.2784729 C-1.7867175 156.19330996 -1.7867175 156.19330996 0 154 C0.2997442 151.22241153 0.2997442 151.22241153 0.24050903 147.91305542 C0.24325836 146.61452637 0.24600769 145.31599731 0.24884033 143.9781189 C0.24176154 142.53082184 0.23449191 141.08352571 0.22705078 139.63623047 C0.2264869 138.11871345 0.22680278 136.60119589 0.22793579 135.0836792 C0.2285112 130.95578263 0.21672657 126.82800155 0.20278788 122.70013189 C0.19031176 118.38929672 0.18911249 114.07845909 0.18673706 109.76760864 C0.1805131 101.60072756 0.16408992 93.43389983 0.14403808 85.26704228 C0.12170754 75.97092874 0.11069282 66.6748127 0.10064721 57.37867904 C0.07972446 38.25242241 0.04453073 19.12621549 0 0 Z " fill="#D0EDFF" transform="translate(232,238)"/>
<path d="M0 0 C9.24 0 18.48 0 28 0 C28 44.22 28 88.44 28 134 C18.76 134 9.52 134 0 134 C0 116.51 0 99.02 0 81 C0.33 81 0.66 81 1 81 C1 97.83 1 114.66 1 132 C9.58 131.67 18.16 131.34 27 131 C27 88.43 27 45.86 27 2 C14.625 2.495 14.625 2.495 2 3 C1.67 18.18 1.34 33.36 1 49 C0.67 49 0.34 49 0 49 C0 32.83 0 16.66 0 0 Z " fill="#E5FAFE" transform="translate(190,247)"/>
<path d="M0 0 C1.55159569 -0.00450165 1.55159569 -0.00450165 3.13453674 -0.00909424 C4.2502153 0.00325256 5.36589386 0.01559937 6.51538086 0.02832031 C8.23319008 0.03113007 8.23319008 0.03113007 9.98570251 0.03399658 C12.40749013 0.04072214 14.82926679 0.0546465 17.25097656 0.07519531 C20.96877067 0.10634933 24.68614104 0.11616535 28.40405273 0.12207031 C30.75366731 0.13124009 33.10327755 0.14161577 35.45288086 0.15332031 C36.57058365 0.15757019 37.68828644 0.16182007 38.83985901 0.16619873 C39.87110397 0.17580627 40.90234894 0.18541382 41.96484375 0.1953125 C43.33027061 0.2055545 43.33027061 0.2055545 44.72328186 0.21600342 C46.91772461 0.35644531 46.91772461 0.35644531 48.91772461 1.35644531 C48.58772461 2.01644531 48.25772461 2.67644531 47.91772461 3.35644531 C47.25772461 3.02644531 46.59772461 2.69644531 45.91772461 2.35644531 C28.75772461 2.35644531 11.59772461 2.35644531 -6.08227539 2.35644531 C-6.41227539 52.51644531 -6.74227539 102.67644531 -7.08227539 154.35644531 C-3.31571036 156.23972783 -2.02108747 156.61494816 1.96166992 156.67529297 C2.9624054 156.69516266 3.96314087 156.71503235 4.99420166 156.73550415 C6.06724548 156.74705536 7.14028931 156.75860657 8.24584961 156.77050781 C9.34999207 156.78987396 10.45413452 156.80924011 11.59173584 156.82919312 C15.11698694 156.88895423 18.64227076 156.93536095 22.16772461 156.98144531 C24.55836382 157.01962823 26.94898932 157.05868015 29.33959961 157.09863281 C35.19885287 157.19465298 41.05818876 157.27971079 46.91772461 157.35644531 C46.91772461 157.68644531 46.91772461 158.01644531 46.91772461 158.35644531 C39.56712446 158.43238921 32.21662514 158.48500033 24.86572266 158.52124023 C22.36405659 158.53634476 19.86241708 158.55682961 17.36083984 158.58276367 C13.76905777 158.61907306 10.1776252 158.63615506 6.58569336 158.64941406 C5.46374069 158.66489792 4.34178802 158.68038177 3.18583679 158.69633484 C1.62455803 158.69667473 1.62455803 158.69667473 0.03173828 158.69702148 C-0.8853743 158.70368332 -1.80248688 158.71034515 -2.74739075 158.71720886 C-5.65692335 158.26765633 -6.33986971 157.70775492 -8.08227539 155.35644531 C-8.45979881 152.62184143 -8.45979881 152.62184143 -8.46322632 149.24536133 C-8.47168579 147.9666214 -8.48014526 146.68788147 -8.48886108 145.37039185 C-8.48302797 143.95037715 -8.47688345 142.53036371 -8.47045898 141.11035156 C-8.47452336 139.6172548 -8.47986449 138.12416104 -8.48638916 136.631073 C-8.50008463 132.57325261 -8.494755 128.51566062 -8.4852519 124.45783615 C-8.47766682 120.21512986 -8.48469771 115.97244337 -8.4894104 111.72973633 C-8.49487132 104.60429364 -8.48766755 97.47894417 -8.47338867 90.35351562 C-8.45706148 82.11064845 -8.46234975 73.86800387 -8.47886789 65.6251421 C-8.4924732 58.55331165 -8.49440711 51.48154828 -8.48655188 44.40970898 C-8.48187009 40.18367551 -8.48126434 35.95774674 -8.49116135 31.73171997 C-8.4998149 27.75900964 -8.49383886 23.78658683 -8.47647858 19.81390762 C-8.47250507 18.35419315 -8.47366252 16.89445455 -8.48026657 15.4347496 C-8.48843722 13.44568484 -8.47638475 11.45656732 -8.46322632 9.4675293 C-8.4615297 7.79617165 -8.4615297 7.79617165 -8.45979881 6.09104919 C-8.08227539 3.35644531 -8.08227539 3.35644531 -6.70355511 1.49747086 C-4.41892544 -0.11040765 -2.77829109 -0.01111716 0 0 Z " fill="#528ACD" transform="translate(183.082275390625,236.6435546875)"/>
<path d="M0 0 C0 3 0 3 -1 5 C-6.17555785 6.32254547 -11.37202778 6.07439957 -16.66796875 5.94921875 C-17.58459793 5.9303511 -18.50122711 5.91148346 -19.44563293 5.89204407 C-21.37454707 5.8503231 -23.30339841 5.80560322 -25.23217773 5.75805664 C-28.18786506 5.68749128 -31.14356557 5.63333354 -34.09960938 5.58007812 C-35.97658542 5.5374562 -37.85353988 5.49386985 -39.73046875 5.44921875 C-40.6148613 5.43453049 -41.49925385 5.41984222 -42.41044617 5.40470886 C-43.23172501 5.38161148 -44.05300385 5.3585141 -44.89916992 5.3347168 C-45.62053635 5.31837692 -46.34190277 5.30203705 -47.08512878 5.28520203 C-49 5 -49 5 -52 3 C-51.37803741 2.99191315 -50.75607483 2.98382629 -50.11526489 2.97549438 C-43.65914984 2.88963493 -37.20334846 2.79014024 -30.74755859 2.68261719 C-28.33615372 2.64426353 -25.92469038 2.6094221 -23.51318359 2.578125 C-20.05284687 2.53261297 -16.59291492 2.47459596 -13.1328125 2.4140625 C-12.04944611 2.40251129 -10.96607971 2.39096008 -9.84988403 2.37905884 C-8.8489975 2.35918915 -7.84811096 2.33931946 -6.81689453 2.31884766 C-5.93309113 2.30552399 -5.04928772 2.29220032 -4.13870239 2.2784729 C-1.7867175 2.19330996 -1.7867175 2.19330996 0 0 Z " fill="#C4E1FC" transform="translate(232,392)"/>
<path d="M0 0 C16.83 0 33.66 0 51 0 C51.495 1.485 51.495 1.485 52 3 C34.51 2.67 17.02 2.34 -1 2 C-0.67 1.34 -0.34 0.68 0 0 Z " fill="#D5EDFE" transform="translate(180,235)"/>
<path d="M0 0 C3.875 0.875 3.875 0.875 5 2 C6.56448383 2.12263388 8.13432772 2.17779522 9.70336914 2.20532227 C11.20481224 2.2352401 11.20481224 2.2352401 12.73658752 2.26576233 C14.36937904 2.29083107 14.36937904 2.29083107 16.03515625 2.31640625 C17.14354355 2.33718735 18.25193085 2.35796844 19.39390564 2.37937927 C22.95003808 2.44499623 26.50624703 2.50381596 30.0625 2.5625 C32.46680493 2.60567368 34.87110199 2.64928758 37.27539062 2.69335938 C43.18351185 2.80068992 49.09170991 2.90243331 55 3 C55 3.33 55 3.66 55 4 C47.6494521 4.10125781 40.29908342 4.17140549 32.94799805 4.21972656 C30.44630207 4.23986617 27.9446533 4.2671796 25.44311523 4.30175781 C21.85128139 4.35017103 18.26006883 4.3729455 14.66796875 4.390625 C12.98503975 4.42159271 12.98503975 4.42159271 11.26811218 4.45318604 C10.22725967 4.45348816 9.18640717 4.45379028 8.11401367 4.45410156 C6.7383448 4.46742523 6.7383448 4.46742523 5.33488464 4.48101807 C3 4 3 4 1.18037415 1.97161865 C0.79085068 1.3209845 0.40132721 0.67035034 0 0 Z " fill="#4A88D6" transform="translate(175,391)"/>
</svg>
