<?xml version="1.0" encoding="UTF-8"?>
<svg version="1.1" xmlns="http://www.w3.org/2000/svg" width="1200" height="990">
<path d="M0 0 C1.24915695 -0.00705963 2.4983139 -0.01411926 3.7853241 -0.02139282 C7.79833104 -0.03892183 11.8111815 -0.04608525 15.82421875 -0.046875 C16.85097214 -0.04731686 16.85097214 -0.04731686 17.89846802 -0.04776764 C38.59228533 -0.04920641 58.99070794 0.24113757 79.51171875 3.203125 C80.96071855 3.40421392 82.40977733 3.60487816 83.85888672 3.80517578 C169.48114342 15.792246 249.95704641 49.43184624 318.51171875 102.203125 C319.44588623 102.91879639 319.44588623 102.91879639 320.39892578 103.64892578 C327.26616156 108.9210516 333.92616856 114.31249001 340.3046875 120.17578125 C342.2400116 121.95353914 344.20574891 123.67888752 346.19921875 125.390625 C358.61949882 136.22694223 371.02019331 147.57916166 381.71875 160.1328125 C383.84318699 162.5858661 386.05360512 164.95015647 388.26171875 167.328125 C393.48958118 173.06775107 398.25750378 179.09720932 402.99169922 185.24609375 C404.58591019 187.29864677 406.20441676 189.33009136 407.828125 191.359375 C422.8236144 210.18885428 435.37614854 230.44510033 447.51171875 251.203125 C448.21506348 252.39470215 448.21506348 252.39470215 448.93261719 253.61035156 C469.81918981 289.13807956 484.67175606 328.89502655 494.94921875 368.703125 C495.11706879 369.35229889 495.28491882 370.00147278 495.45785522 370.6703186 C497.46141317 378.47468933 499.1173407 386.26939982 500.51171875 394.203125 C501.27798584 394.19424255 502.04425293 394.18536011 502.83374023 394.1762085 C510.12792833 394.09537488 517.42189304 394.03481677 524.71641541 393.99587631 C528.46478704 393.97518221 532.21278236 393.94720734 535.9609375 393.90136719 C539.59200626 393.85724734 543.22271788 393.83385212 546.85403442 393.82361603 C548.88319705 393.81285028 550.91222007 393.78173619 552.94116211 393.74993896 C570.72853545 393.74574093 586.16963013 398.4520199 599.2890625 410.84375 C602.5851653 414.34260078 605.1360256 418.03629412 607.51171875 422.203125 C607.88941406 422.83734375 608.26710938 423.4715625 608.65625 424.125 C612.97681022 431.95702676 614.96126078 441.31239472 615.51171875 450.203125 C615.56457031 451.02425781 615.61742187 451.84539062 615.671875 452.69140625 C616.71995204 485.63748022 601.45734099 515.03770911 579.69921875 538.765625 C577.98379 540.591987 576.24984482 542.39814792 574.51171875 544.203125 C573.93421875 544.8321875 573.35671875 545.46125 572.76171875 546.109375 C555.01658057 564.91922147 529.20215606 579.06155956 504.51171875 586.203125 C503.52171875 586.203125 502.53171875 586.203125 501.51171875 586.203125 C501.40214844 586.80858154 501.29257813 587.41403809 501.1796875 588.0378418 C489.01347771 654.24106368 461.95139334 716.64432161 424.44921875 772.390625 C424.00827881 773.05626465 423.56733887 773.7219043 423.11303711 774.40771484 C420.72261783 777.89133342 419.4040167 779.25697602 415.51171875 781.203125 C378.55171875 744.243125 341.59171875 707.283125 303.51171875 669.203125 C311.51171875 654.203125 311.51171875 654.203125 314.12890625 649.42578125 C318.78804773 640.8932204 322.94478174 632.23504012 326.69921875 623.265625 C327.07868652 622.36271729 327.4581543 621.45980957 327.84912109 620.52954102 C330.51256606 614.02566099 332.86068958 607.43142671 335.16918945 600.79467773 C335.65293911 599.40804554 335.65293911 599.40804554 336.14646149 597.99340057 C336.93582878 595.73030395 337.72422284 593.46687335 338.51171875 591.203125 C337.95088372 591.20404679 337.39004869 591.20496859 336.81221867 591.20591831 C323.18415782 591.22797473 309.55610009 591.24447337 295.92802525 591.25493717 C289.3376709 591.26016672 282.74732938 591.26726567 276.15698242 591.27856445 C269.80279857 591.28939078 263.4486271 591.29540129 257.09443474 591.29800224 C254.66422264 591.29985695 252.23401126 591.30347843 249.8038044 591.30885506 C246.41288894 591.31606211 243.02202534 591.31711608 239.63110352 591.31665039 C238.61546829 591.32024567 237.59983307 591.32384094 236.55342102 591.32754517 C235.17564484 591.32548317 235.17564484 591.32548317 233.77003479 591.32337952 C232.9671531 591.32430131 232.16427141 591.3252231 231.33705997 591.32617283 C229.51171875 591.203125 229.51171875 591.203125 228.51171875 590.203125 C227.67228614 582.68320786 230.22513424 577.60979411 233.51171875 570.953125 C234.62004627 568.63287382 235.72534664 566.31117499 236.828125 563.98828125 C237.12239883 563.3722554 237.41667267 562.75622955 237.71986389 562.12153625 C241.45359239 554.28191017 244.94109266 546.33299981 248.44921875 538.390625 C249.82728826 535.2782749 251.2066484 532.16649727 252.5859375 529.0546875 C253.09098312 527.91453941 253.09098312 527.91453941 253.60623169 526.75135803 C256.6365657 519.91307587 259.69561625 513.08794952 262.76171875 506.265625 C267.84307822 494.953742 272.88204575 483.62338112 277.91271973 472.28887939 C284.69198021 457.01640648 291.486497 441.75095035 298.33511353 426.50942993 C299.11088412 424.78277444 299.8861044 423.05587158 300.66073608 421.32870483 C301.73428696 418.93578111 302.81013616 416.54390476 303.88671875 414.15234375 C304.19628006 413.46160767 304.50584137 412.77087158 304.82478333 412.0592041 C311.7886738 396.6239195 311.7886738 396.6239195 316.51171875 394.203125 C320.29946838 393.74291004 324.01616173 393.8264334 327.82421875 393.953125 C328.85095703 393.97117187 329.87769531 393.98921875 330.93554688 394.0078125 C333.4618976 394.05481437 335.98632344 394.12050228 338.51171875 394.203125 C327.78814746 362.9731336 314.58774639 332.33995973 295.51171875 305.203125 C294.76535156 304.1203125 294.01898437 303.0375 293.25 301.921875 C284.23396377 288.96028729 274.21120674 276.80679507 263.51171875 265.203125 C262.69703125 264.2853125 261.88234375 263.3675 261.04296875 262.421875 C250.13633845 250.23211172 238.21531757 239.36001916 225.18505859 229.48242188 C223.55527384 228.23642361 221.94723814 226.96709651 220.34375 225.6875 C170.53436099 186.14712859 108.29914156 164.40993786 45.51171875 158.203125 C44.2071875 158.07035156 42.90265625 157.93757812 41.55859375 157.80078125 C-24.98641379 152.25536395 -91.01959699 169.26381449 -149.21679688 201.00561523 C-151.34144798 202.12571558 -153.48120239 203.20559645 -155.63024902 204.27796936 C-156.35225243 204.63841371 -157.07425583 204.99885805 -157.81813812 205.37022495 C-158.36928535 205.64508197 -158.92043259 205.91993898 -159.48828125 206.203125 C-174.09732328 191.64074303 -188.70068187 177.07268375 -203.29724121 162.49778938 C-210.07436037 155.7309957 -216.85334748 148.96609313 -223.63671875 142.20556641 C-229.54707384 136.31510636 -235.45393965 130.42117378 -241.35659027 124.52299297 C-244.48394316 121.39825406 -247.6130502 118.27531726 -250.74633789 115.15652847 C-253.69230952 112.22407944 -256.63361127 109.28702846 -259.57131958 106.34630203 C-260.65320365 105.26497053 -261.736817 104.18536616 -262.82223511 103.10758209 C-264.29823124 101.64146399 -265.76801138 100.16939005 -267.23632812 98.69558716 C-268.06225464 97.87150423 -268.88818115 97.0474213 -269.73913574 96.19836617 C-271.48828125 94.203125 -271.48828125 94.203125 -271.48828125 92.203125 C-269.60253906 90.69775391 -269.60253906 90.69775391 -266.94140625 88.9296875 C-265.4721167 87.94911377 -265.4721167 87.94911377 -263.97314453 86.94873047 C-262.90563965 86.24893066 -261.83813477 85.54913086 -260.73828125 84.828125 C-259.64370605 84.10641113 -258.54913086 83.38469727 -257.42138672 82.64111328 C-181.97551586 33.08922397 -91.06444897 0.34381608 0 0 Z " fill="#ABC2AB" transform="translate(583.48828125,-0.203125)"/>
<path d="M0 0 C3.60337113 1.52651837 5.90511269 3.65832071 8.65704346 6.41653442 C9.58809906 7.3448407 10.51915466 8.27314697 11.47842407 9.22958374 C12.50296167 10.26119913 13.52740303 11.29291011 14.55175781 12.32470703 C15.63564824 13.40916169 16.71997943 14.49317596 17.80471802 15.57678223 C20.74689906 18.51838923 23.68287105 21.4661238 26.61777592 24.41498804 C29.68649279 27.4962038 32.76087088 30.5717602 35.83465576 33.6479187 C41.65384127 39.47332145 47.46790956 45.30380388 53.28016162 51.13612354 C59.89770548 57.77601879 66.52092636 64.4102388 73.14463282 71.04398561 C86.76941996 84.68968027 100.38705302 98.34249408 114 112 C112.80929164 115.02269845 111.59974603 117.87669936 109.96875 120.6875 C109.57558594 121.37457031 109.18242187 122.06164062 108.77734375 122.76953125 C108.14505859 123.87361328 108.14505859 123.87361328 107.5 125 C84.1991023 166.50684692 65.46973321 217.69269508 66 266 C66.79019531 265.42894531 67.58039063 264.85789062 68.39453125 264.26953125 C77.71876222 257.55726773 87.17900433 251.05600712 96.67333984 244.58740234 C100.18414173 242.19209973 103.68634555 239.78437331 107.1875 237.375 C107.8357373 236.92906494 108.48397461 236.48312988 109.15185547 236.02368164 C110.45073185 235.13011572 111.74956025 234.23648003 113.04833984 233.34277344 C116.36491764 231.06091481 119.6825171 228.78054245 123 226.5 C124.33333808 225.58334024 125.66667142 224.66667358 127 223.75 C129.66666667 221.91666667 132.33333333 220.08333333 135 218.25 C135.66040283 217.79592773 136.32080566 217.34185547 137.0012207 216.87402344 C138.33031399 215.96036312 139.65957747 215.04695034 140.98901367 214.13378906 C144.38868072 211.79815903 147.78499169 209.45787804 151.17578125 207.109375 C157.08222405 203.02200566 162.99544601 198.94230027 169 195 C169.78375 194.484375 170.5675 193.96875 171.375 193.4375 C179.86736947 188.78691672 186.8509339 188.59356445 196.4375 188.75 C197.72849609 188.75515625 199.01949219 188.7603125 200.34960938 188.765625 C209.84563363 188.84563363 209.84563363 188.84563363 211 190 C211.35593746 192.95625835 211.4244016 194.44120456 209.59375 196.8515625 C202.88231836 202.53624527 195.72831385 207.43155359 188.44433594 212.33984375 C183.76653269 215.51693744 179.1372656 218.76416848 174.5 222 C167.39502403 226.94961157 160.27867844 231.88128333 153.13671875 236.77734375 C147.23933165 240.82504121 141.36945335 244.91193716 135.5 249 C128.39454817 253.94893338 121.27868322 258.88128005 114.13671875 263.77734375 C107.24457016 268.50780012 100.3889672 273.2906702 93.5300293 278.0690918 C86.99536321 282.61919196 80.44621923 287.14721292 73.87109375 291.63867188 C72.24317759 292.75297693 70.62124878 293.87601637 69 295 C68.19949219 295.39832031 67.39898437 295.79664063 66.57421875 296.20703125 C64.23519734 298.87107797 64.64640232 301.16012038 64.79956055 304.61035156 C64.86570557 305.52268555 64.93185059 306.43501953 65 307.375 C65.05905518 308.33889648 65.11811035 309.30279297 65.17895508 310.29589844 C67.1952665 339.16819926 72.90698597 367.53649342 82 395 C82.28037109 395.84916992 82.56074219 396.69833984 82.84960938 397.57324219 C101.92113275 454.42995812 138.39099242 509.83384013 186 547 C187.186819 547.96247715 188.37158871 548.92748479 189.5546875 549.89453125 C244.29443065 594.51063858 316.30151896 623.85018272 387.40625 624.203125 C388.36102737 624.21013931 389.31580475 624.21715363 390.29951477 624.22438049 C393.36639179 624.24178728 396.43307538 624.24823367 399.5 624.25 C400.55045502 624.25067474 401.60091003 624.25134949 402.68319702 624.25204468 C418.98461313 624.23542215 434.88624889 623.67561881 451 621 C452.59448975 620.74259033 452.59448975 620.74259033 454.22119141 620.47998047 C494.84034469 613.75121178 538.76272848 600.2978451 573.125 576.86328125 C575 576 575 576 576.82612228 576.17752743 C579.80385132 577.30413195 581.41068192 579.04222535 583.65704346 581.29627991 C584.58809906 582.22321152 585.51915466 583.15014313 586.47842407 584.10516357 C587.50300818 585.14036485 588.52744793 586.17570902 589.55175781 587.21118164 C590.63543348 588.29570349 591.71977011 589.37956523 592.80471802 590.46281433 C595.74915939 593.40639399 598.68425129 596.35914025 601.61777592 599.3135941 C604.68470849 602.3992641 607.76012306 605.47645617 610.83465576 608.55455017 C616.65585483 614.38507832 622.46936352 620.22321253 628.28016162 626.0641045 C634.89573522 632.7131952 641.51981629 639.35378243 648.14463282 645.993662 C661.77258997 659.65298773 675.38980349 673.32297858 689 687 C687.41314913 690.41190718 686.07823411 691.94516422 682.9140625 694.03125 C682.07625244 694.58828613 681.23844238 695.14532227 680.37524414 695.71923828 C679.46766357 696.30688965 678.56008301 696.89454102 677.625 697.5 C676.21238892 698.42594971 676.21238892 698.42594971 674.77124023 699.37060547 C608.33443679 742.61139428 534.56610644 770.15975316 455.75 779.25 C455.02755096 779.33335602 454.30510193 779.41671204 453.5607605 779.50259399 C436.31613054 781.46324732 419.16144152 782.23909534 401.8125 782.25 C400.34775742 782.25101212 400.34775742 782.25101212 398.85342407 782.25204468 C347.03962791 782.19580589 296.28139993 773.94169514 247 758 C245.97084473 757.66887207 244.94168945 757.33774414 243.88134766 756.99658203 C196.62562761 741.6246156 150.87928806 718.31867769 111.07617188 688.54980469 C109.00271625 687.0020276 106.91697373 685.4722315 104.828125 683.9453125 C93.13323326 675.34997015 82.20285588 666.0011469 71.4765625 656.23046875 C70.12289581 655.01131468 68.76285554 653.79861061 67.37426758 652.61938477 C61.32325414 647.45246584 55.71129666 641.8632279 50.09985352 636.23022461 C48.4407268 634.56573723 46.77631949 632.90666553 45.11132812 631.24804688 C39.53125385 625.67177573 34.0881115 620.03441562 29 614 C28.12324911 612.99014397 27.24569189 611.98098722 26.3671875 610.97265625 C18.89117997 602.24283555 11.89866131 593.19031036 5 584 C4.525625 583.37367676 4.05125 582.74735352 3.5625 582.10205078 C-34.53364449 531.76264963 -83 451.21957922 -83 386 C-83.80824219 386.05800781 -84.61648437 386.11601563 -85.44921875 386.17578125 C-86.51785156 386.22089844 -87.58648437 386.26601563 -88.6875 386.3125 C-89.74324219 386.37050781 -90.79898438 386.42851563 -91.88671875 386.48828125 C-96.06203648 385.83343217 -97.22208055 384.12698305 -100 381 C-101.72241211 378.2746582 -101.72241211 378.2746582 -103.27734375 375.30078125 C-103.86588135 374.18751465 -104.45441895 373.07424805 -105.06079102 371.92724609 C-105.68641939 370.72236121 -106.31198747 369.51744502 -106.9375 368.3125 C-107.59917596 367.054973 -108.26187228 365.79798241 -108.92553711 364.54150391 C-110.28951899 361.95773938 -111.6495223 359.37194116 -113.00683594 356.78466797 C-115.98141051 351.1244888 -119.0232925 345.50065708 -122.0625 339.875 C-123.22026582 337.72667767 -124.37781778 335.57824008 -125.53515625 333.4296875 C-126.10637207 332.36975586 -126.67758789 331.30982422 -127.26611328 330.21777344 C-130.17870265 324.81254563 -133.0892423 319.40621432 -136 314 C-137.16665696 311.83332811 -138.33332363 309.66666144 -139.5 307.5 C-160.5 268.49999999 -160.5 268.49999999 -162.25024414 265.24951172 C-163.41605818 263.08445175 -164.581911 260.91941266 -165.74780273 258.75439453 C-168.67783422 253.31331664 -171.60717526 247.87186912 -174.53515625 242.4296875 C-175.11894043 241.34526367 -175.70272461 240.26083984 -176.30419922 239.14355469 C-177.46754326 236.9809818 -178.62935167 234.81758205 -179.78955078 232.65332031 C-182.73969514 227.15787137 -185.72408644 221.68547801 -188.76953125 216.2421875 C-189.67723267 214.60660889 -189.67723267 214.60660889 -190.60327148 212.93798828 C-191.75510387 210.8654201 -192.91686287 208.79832683 -194.09008789 206.73779297 C-194.60434326 205.80854004 -195.11859863 204.87928711 -195.6484375 203.921875 C-196.10395996 203.11331055 -196.55948242 202.30474609 -197.02880859 201.47167969 C-198.25407351 198.35338356 -198.51847718 196.32023748 -198 193 C-195.84514372 190.49793593 -194.06997911 189.17130817 -190.76725769 188.64252853 C-187.91805265 188.50622382 -185.0951718 188.50568244 -182.24291992 188.54589844 C-181.15954346 188.54531433 -180.07616699 188.54473022 -178.95996094 188.54412842 C-175.38313633 188.54691257 -171.80714758 188.57802172 -168.23046875 188.609375 C-165.74897212 188.61683617 -163.26746959 188.62252969 -160.78596497 188.62652588 C-154.25757555 188.64179175 -147.72954261 188.68108248 -141.20129395 188.7253418 C-134.53856121 188.76843642 -127.87572478 188.78453248 -121.21289062 188.8046875 C-108.14177508 188.84757522 -95.07090651 188.91506877 -82 189 C-81.9015628 188.07803691 -81.9015628 188.07803691 -81.80113697 187.13744831 C-81.6695747 185.92536591 -81.6695747 185.92536591 -81.53535461 184.688797 C-81.44910481 183.88852994 -81.36285501 183.08826288 -81.27399158 182.26374531 C-73.4661851 117.75488345 -36.32666876 52.25274725 0 0 Z " fill="#467F60" transform="translate(199,205)"/>
<path d="M0 0 C14.73534808 13.3455851 25.75943662 28.45226349 35 46 C37.21121472 43.24217962 38.7164758 40.64306701 40.05078125 37.375 C40.42009766 36.50359375 40.78941406 35.6321875 41.16992188 34.734375 C41.92991007 32.91559983 42.67997808 31.09264672 43.41992188 29.265625 C43.97969727 27.95851563 43.97969727 27.95851563 44.55078125 26.625 C45.04058472 25.43777344 45.04058472 25.43777344 45.5402832 24.2265625 C47.51635742 21.21238005 49.73325699 19.4299853 53 18 C56.49491169 17.43632954 59.93810196 17.4836421 63.47167969 17.5300293 C64.51297531 17.5278389 65.55427094 17.5256485 66.62712097 17.52339172 C70.05903178 17.52108551 73.49007901 17.54730553 76.921875 17.57421875 C79.307472 17.57914289 81.69307287 17.58244161 84.07867432 17.58418274 C89.07194402 17.59181708 94.06492651 17.61236503 99.05810547 17.64331055 C105.46989872 17.6829707 111.88150549 17.7009336 118.29340744 17.71061993 C124.39875539 17.72057405 130.50405745 17.74047284 136.609375 17.76171875 C138.36493839 17.76681237 138.36493839 17.76681237 140.15596771 17.7720089 C143.45266742 17.78354092 146.74924674 17.80205322 150.04589844 17.82299805 C151.52176674 17.8270314 151.52176674 17.8270314 153.02745056 17.83114624 C153.92184341 17.83830154 154.81623627 17.84545685 155.73773193 17.85282898 C156.51715023 17.85710246 157.29656853 17.86137594 158.09960556 17.86577892 C160 18 160 18 162 19 C161.54252137 25.71037786 160.17866519 30.75214607 157.30859375 36.80078125 C156.93207672 37.62171265 156.55555969 38.44264404 156.16763306 39.28845215 C154.9356789 41.96857215 153.68643505 44.64025702 152.4375 47.3125 C151.56611639 49.20267349 150.69626446 51.09355379 149.82788086 52.98510742 C148.50112408 55.87454506 147.17344815 58.7635181 145.84101868 61.65034485 C141.83256421 70.33515224 137.93141154 79.06484438 134.0625 87.8125 C133.41643137 89.27009561 132.77018942 90.7276144 132.1237793 92.18505859 C130.78976286 95.19309312 129.4564365 98.20143214 128.12353516 101.20996094 C125.83987133 106.36293248 123.55115467 111.51365334 121.26171875 116.6640625 C120.85371536 117.58197571 120.44571198 118.49988892 120.02534485 119.44561768 C117.92738567 124.16517377 115.82883548 128.88446645 113.72973633 133.60351562 C109.7856903 142.47188815 105.84613551 151.34215519 101.92486572 160.22062683 C100.13279726 164.27742874 98.33791995 168.33298519 96.54284668 172.38845825 C95.69615404 174.30342982 94.85080627 176.21899672 94.00695801 178.13522339 C90.02161928 187.1843162 85.9980309 196.21310542 81.671875 205.10546875 C81.20312958 206.09345207 81.20312958 206.09345207 80.72491455 207.10139465 C78.94272868 210.6931253 77.45290079 212.95210796 74 215 C71.3550415 215.36076355 71.3550415 215.36076355 68.31347656 215.34057617 C67.17259583 215.34034958 66.03171509 215.34012299 64.85626221 215.33988953 C63.63010193 215.32440567 62.40394165 215.30892181 61.140625 215.29296875 C59.88111023 215.28872391 58.62159546 215.28447906 57.32391357 215.28010559 C53.98311462 215.26616121 50.64293416 215.23922925 47.30230713 215.20599365 C43.89039442 215.17524839 40.4784177 215.16159079 37.06640625 215.14648438 C30.37743351 215.11339814 23.68875246 215.06318524 17 215 C16.71801758 215.60199219 16.43603516 216.20398438 16.14550781 216.82421875 C2.36241877 243.00386274 -33.94279391 260.42906419 -60.7265625 268.75390625 C-101.31921231 280.8412944 -144.59480914 275.71561736 -181.84375 255.9921875 C-197.5731103 247.40870947 -211.6935076 235.9874685 -223.875 222.875 C-224.65218384 222.04029175 -224.65218384 222.04029175 -225.44506836 221.1887207 C-229 217.26029238 -229 217.26029238 -229 215 C-230.01682861 215.00888245 -231.03365723 215.01776489 -232.08129883 215.0269165 C-241.7300419 215.10850002 -251.3787137 215.1682019 -261.02772522 215.20724869 C-265.98673028 215.22799886 -270.94545379 215.25608263 -275.90429688 215.30175781 C-280.70245067 215.34566924 -285.50033608 215.36923123 -290.29867554 215.37950897 C-292.11644711 215.38682 -293.93420635 215.40109289 -295.75186157 215.42292023 C-315.25143534 215.6474677 -331.8130548 212.70859808 -346.75 199.0625 C-358.8522864 186.33061488 -363.605553 169.66882659 -363.4375 152.375 C-363.42775146 151.23909424 -363.41800293 150.10318848 -363.40795898 148.93286133 C-362.69453744 114.73457657 -343.89640922 84.45373674 -320 61 C-316.47186069 57.79675409 -312.80818384 54.86256194 -309 52 C-308.47712402 51.60216309 -307.95424805 51.20432617 -307.41552734 50.79443359 C-286.70038371 35.11893518 -260.85877099 21.50194341 -234.5625 19.4375 C-227.30676055 18.39523909 -223.58661773 12.89334738 -219.2421875 7.51904297 C-197.41553193 -19.17227994 -159.32579456 -35.90926153 -125.58984375 -39.71875 C-78.99508289 -43.12094176 -35.18866111 -31.51209933 0 0 Z M-257 164 C-256 167 -256 167 -256 167 Z M-256 167 C-255.74438677 169.3431213 -255.40729228 171.67843403 -255 174 C-254.34 174.33 -253.68 174.66 -253 175 C-253.66 172.36 -254.32 169.72 -255 167 C-255.33 167 -255.66 167 -256 167 Z " fill="#000000" transform="translate(706,376)"/>
<path d="M0 0 C1.00570406 -0.00623996 2.01140811 -0.01247993 3.04758805 -0.01890898 C6.42219627 -0.03488049 9.79608632 -0.02221756 13.17070007 -0.00964355 C15.58880027 -0.01506318 18.00689717 -0.02218493 20.42498779 -0.03088379 C26.31659563 -0.04725098 32.20801669 -0.04482392 38.09961937 -0.03323323 C42.89438387 -0.02419247 47.68909134 -0.02297771 52.48386192 -0.02732849 C53.16685449 -0.02794142 53.84984707 -0.02855436 54.55353638 -0.02918586 C55.94125303 -0.03046483 57.32896966 -0.03176168 58.71668627 -0.03307623 C71.73546208 -0.04448651 84.75412532 -0.03136626 97.77288266 -0.00987476 C108.91596182 0.00795256 120.05887402 0.00492919 131.20195007 -0.0135498 C144.15770039 -0.03502496 157.1133516 -0.04334147 170.06911725 -0.03110075 C171.45503595 -0.02982667 172.84095467 -0.02856918 174.2268734 -0.02732849 C174.90864641 -0.02671139 175.59041942 -0.02609429 176.29285223 -0.02545848 C181.06989618 -0.02202213 185.84687676 -0.02779761 190.6239109 -0.0372467 C197.07787619 -0.0497323 203.53160264 -0.04065969 209.98554039 -0.01766968 C212.34444029 -0.01241513 214.70336682 -0.01383998 217.06225586 -0.02272034 C238.37827185 -0.09551624 256.66015058 1.83905984 272.86869812 17.14855957 C276.16480092 20.64741035 278.71566122 24.34110369 281.09135437 28.50793457 C281.46904968 29.14215332 281.846745 29.77637207 282.23588562 30.42980957 C286.55644584 38.26183633 288.5408964 47.61720429 289.09135437 56.50793457 C289.17063171 57.73963379 289.17063171 57.73963379 289.25151062 58.99621582 C290.29958766 91.94228979 275.03697661 121.34251868 253.27885437 145.07043457 C251.56342562 146.89679657 249.82948044 148.7029575 248.09135437 150.50793457 C247.51385437 151.13699707 246.93635437 151.76605957 246.34135437 152.41418457 C228.59621619 171.22403104 202.78179168 185.36636913 178.09135437 192.50793457 C177.10135437 192.50793457 176.11135437 192.50793457 175.09135437 192.50793457 C174.98178406 193.11339111 174.87221375 193.71884766 174.75932312 194.34265137 C162.59311333 260.54587325 135.53102896 322.94913118 98.02885437 378.69543457 C97.58791443 379.36107422 97.14697449 380.02671387 96.69267273 380.71252441 C94.30225345 384.19614299 92.98365232 385.56178559 89.09135437 387.50793457 C52.13135437 350.54793457 15.17135437 313.58793457 -22.90864563 275.50793457 C-14.90864563 260.50793457 -14.90864563 260.50793457 -12.29145813 255.73059082 C-7.63231665 247.19802997 -3.47558264 238.53984969 0.27885437 229.57043457 C0.65832214 228.66752686 1.03778992 227.76461914 1.42875671 226.83435059 C4.09220168 220.33047056 6.4403252 213.73623628 8.74882507 207.0994873 C9.07132484 206.17506584 9.39382462 205.25064438 9.72609711 204.29821014 C10.5154644 202.03511352 11.30385846 199.77168292 12.09135437 197.50793457 C11.53051934 197.50885636 10.96968431 197.50977816 10.39185429 197.51072788 C-3.23620656 197.5327843 -16.86426429 197.54928294 -30.49233913 197.55974674 C-37.08269348 197.56497629 -43.673035 197.57207524 -50.26338196 197.58337402 C-56.61756581 197.59420035 -62.97173728 197.60021086 -69.32592964 197.60281181 C-71.75614174 197.60466652 -74.18635312 197.608288 -76.61655998 197.61366463 C-80.00747544 197.62087168 -83.39833904 197.62192565 -86.78926086 197.62145996 C-87.80489609 197.62505524 -88.82053131 197.62865051 -89.86694336 197.63235474 C-90.78546082 197.63098007 -91.70397827 197.62960541 -92.65032959 197.62818909 C-93.45321128 197.62911088 -94.25609297 197.63003267 -95.08330441 197.6309824 C-96.90864563 197.50793457 -96.90864563 197.50793457 -97.90864563 196.50793457 C-98.74807824 188.98801743 -96.19523014 183.91460368 -92.90864563 177.25793457 C-91.80031811 174.93768339 -90.69501774 172.61598456 -89.59223938 170.29309082 C-89.29796555 169.67706497 -89.00369171 169.06103912 -88.70050049 168.42634583 C-84.96677199 160.58671974 -81.47927172 152.63780938 -77.97114563 144.69543457 C-76.59307612 141.58308447 -75.21371598 138.47130684 -73.83442688 135.35949707 C-73.4977298 134.59939835 -73.16103271 133.83929962 -72.81413269 133.0561676 C-69.78379868 126.21788544 -66.72474813 119.39275909 -63.65864563 112.57043457 C-58.57728616 101.25855157 -53.53831863 89.92819069 -48.50764465 78.59368896 C-41.72838417 63.32121605 -34.93386738 48.05575992 -28.08525085 32.8142395 C-27.30948026 31.08758401 -26.53425998 29.36068115 -25.7596283 27.6335144 C-24.68607742 25.24059068 -23.61022822 22.84871433 -22.53364563 20.45715332 C-22.06930367 19.42104919 -22.06930367 19.42104919 -21.59558105 18.36401367 C-20.71223485 16.40609947 -19.81086743 14.45720753 -18.90864563 12.50793457 C-18.59894836 11.8048819 -18.2892511 11.10182922 -17.97016907 10.37747192 C-17.48725403 9.32987198 -17.48725403 9.32987198 -16.99458313 8.2611084 C-16.7140509 7.63674393 -16.43351868 7.01237946 -16.14448547 6.36909485 C-11.88071229 -0.05209745 -7.0695893 -0.06714496 0 0 Z " fill="#000000" transform="translate(909.9086456298828,393.4920654296875)"/>
<path d="M0 0 C3.60337113 1.52651837 5.90511269 3.65832071 8.65704346 6.41653442 C9.58809906 7.3448407 10.51915466 8.27314697 11.47842407 9.22958374 C12.50296167 10.26119913 13.52740303 11.29291011 14.55175781 12.32470703 C15.63564824 13.40916169 16.71997943 14.49317596 17.80471802 15.57678223 C20.74689906 18.51838923 23.68287105 21.4661238 26.61777592 24.41498804 C29.68649279 27.4962038 32.76087088 30.5717602 35.83465576 33.6479187 C41.65384127 39.47332145 47.46790956 45.30380388 53.28016162 51.13612354 C59.89770548 57.77601879 66.52092636 64.4102388 73.14463282 71.04398561 C86.76941996 84.68968027 100.38705302 98.34249408 114 112 C112.80929164 115.02269845 111.59974603 117.87669936 109.96875 120.6875 C109.57558594 121.37457031 109.18242187 122.06164062 108.77734375 122.76953125 C108.14505859 123.87361328 108.14505859 123.87361328 107.5 125 C84.1991023 166.50684692 65.46973321 217.69269508 66 266 C66.79019531 265.42894531 67.58039063 264.85789062 68.39453125 264.26953125 C77.71876222 257.55726773 87.17900433 251.05600712 96.67333984 244.58740234 C100.18414173 242.19209973 103.68634555 239.78437331 107.1875 237.375 C107.8357373 236.92906494 108.48397461 236.48312988 109.15185547 236.02368164 C110.45073185 235.13011572 111.74956025 234.23648003 113.04833984 233.34277344 C116.36491764 231.06091481 119.6825171 228.78054245 123 226.5 C124.33333808 225.58334024 125.66667142 224.66667358 127 223.75 C129.66666667 221.91666667 132.33333333 220.08333333 135 218.25 C135.66040283 217.79592773 136.32080566 217.34185547 137.0012207 216.87402344 C138.33031399 215.96036312 139.65957747 215.04695034 140.98901367 214.13378906 C144.38868072 211.79815903 147.78499169 209.45787804 151.17578125 207.109375 C157.08222405 203.02200566 162.99544601 198.94230027 169 195 C169.78375 194.484375 170.5675 193.96875 171.375 193.4375 C179.86736947 188.78691672 186.8509339 188.59356445 196.4375 188.75 C197.72849609 188.75515625 199.01949219 188.7603125 200.34960938 188.765625 C209.84563363 188.84563363 209.84563363 188.84563363 211 190 C211.35593746 192.95625835 211.4244016 194.44120456 209.59375 196.8515625 C202.88231836 202.53624527 195.72831385 207.43155359 188.44433594 212.33984375 C183.76653269 215.51693744 179.1372656 218.76416848 174.5 222 C167.39502403 226.94961157 160.27867844 231.88128333 153.13671875 236.77734375 C147.23933165 240.82504121 141.36945335 244.91193716 135.5 249 C128.39454817 253.94893338 121.27868322 258.88128005 114.13671875 263.77734375 C108.23932986 267.82504244 102.3696179 271.91217087 96.5 276 C92.66722093 278.66746411 88.83388565 281.33412661 85 284 C83.82993408 284.81380127 83.82993408 284.81380127 82.63623047 285.64404297 C75.43033442 290.64944276 68.18847813 295.54574862 60.7746582 300.24047852 C51.89335924 305.92208847 43.32545916 312.08132056 34.68847656 318.12402344 C31.13829856 320.60128168 27.57179773 323.05406444 24 325.5 C17.478947 329.96986988 10.9874417 334.48150948 4.5 339 C-2.60376575 343.94775902 -9.71612774 348.88165091 -16.85888672 353.77294922 C-20.78710559 356.46689988 -24.69869235 359.18349261 -28.6015625 361.9140625 C-63.79975307 386.5329813 -63.79975307 386.5329813 -80.5625 386.5 C-81.87669922 386.52835938 -83.19089844 386.55671875 -84.54492188 386.5859375 C-85.81013672 386.58851563 -87.07535156 386.59109375 -88.37890625 386.59375 C-89.5294751 386.60083984 -90.68004395 386.60792969 -91.86547852 386.61523438 C-96.0067118 385.80240566 -97.36416082 384.24339673 -100 381 C-101.72241211 378.2746582 -101.72241211 378.2746582 -103.27734375 375.30078125 C-103.86588135 374.18751465 -104.45441895 373.07424805 -105.06079102 371.92724609 C-105.68641939 370.72236121 -106.31198747 369.51744502 -106.9375 368.3125 C-107.59917596 367.054973 -108.26187228 365.79798241 -108.92553711 364.54150391 C-110.28951899 361.95773938 -111.6495223 359.37194116 -113.00683594 356.78466797 C-115.98141051 351.1244888 -119.0232925 345.50065708 -122.0625 339.875 C-123.22026582 337.72667767 -124.37781778 335.57824008 -125.53515625 333.4296875 C-126.10637207 332.36975586 -126.67758789 331.30982422 -127.26611328 330.21777344 C-130.17870265 324.81254563 -133.0892423 319.40621432 -136 314 C-137.16665696 311.83332811 -138.33332363 309.66666144 -139.5 307.5 C-160.5 268.49999999 -160.5 268.49999999 -162.25024414 265.24951172 C-163.41605818 263.08445175 -164.581911 260.91941266 -165.74780273 258.75439453 C-168.67783422 253.31331664 -171.60717526 247.87186912 -174.53515625 242.4296875 C-175.11894043 241.34526367 -175.70272461 240.26083984 -176.30419922 239.14355469 C-177.46754326 236.9809818 -178.62935167 234.81758205 -179.78955078 232.65332031 C-182.73969514 227.15787137 -185.72408644 221.68547801 -188.76953125 216.2421875 C-189.67723267 214.60660889 -189.67723267 214.60660889 -190.60327148 212.93798828 C-191.75510387 210.8654201 -192.91686287 208.79832683 -194.09008789 206.73779297 C-194.60434326 205.80854004 -195.11859863 204.87928711 -195.6484375 203.921875 C-196.10395996 203.11331055 -196.55948242 202.30474609 -197.02880859 201.47167969 C-198.25407351 198.35338356 -198.51847718 196.32023748 -198 193 C-195.84514372 190.49793593 -194.06997911 189.17130817 -190.76725769 188.64252853 C-187.91805265 188.50622382 -185.0951718 188.50568244 -182.24291992 188.54589844 C-181.15954346 188.54531433 -180.07616699 188.54473022 -178.95996094 188.54412842 C-175.38313633 188.54691257 -171.80714758 188.57802172 -168.23046875 188.609375 C-165.74897212 188.61683617 -163.26746959 188.62252969 -160.78596497 188.62652588 C-154.25757555 188.64179175 -147.72954261 188.68108248 -141.20129395 188.7253418 C-134.53856121 188.76843642 -127.87572478 188.78453248 -121.21289062 188.8046875 C-108.14177508 188.84757522 -95.07090651 188.91506877 -82 189 C-81.9015628 188.07803691 -81.9015628 188.07803691 -81.80113697 187.13744831 C-81.6695747 185.92536591 -81.6695747 185.92536591 -81.53535461 184.688797 C-81.44910481 183.88852994 -81.36285501 183.08826288 -81.27399158 182.26374531 C-73.4661851 117.75488345 -36.32666876 52.25274725 0 0 Z " fill="#467F60" transform="translate(199,205)"/>
<path d="M0 0 C14.73534808 13.3455851 25.75943662 28.45226349 35 46 C37.21121472 43.24217962 38.7164758 40.64306701 40.05078125 37.375 C40.42009766 36.50359375 40.78941406 35.6321875 41.16992188 34.734375 C41.92991007 32.91559983 42.67997808 31.09264672 43.41992188 29.265625 C43.97969727 27.95851563 43.97969727 27.95851563 44.55078125 26.625 C45.04058472 25.43777344 45.04058472 25.43777344 45.5402832 24.2265625 C47.51635742 21.21238005 49.73325699 19.4299853 53 18 C56.49491169 17.43632954 59.93810196 17.4836421 63.47167969 17.5300293 C64.51297531 17.5278389 65.55427094 17.5256485 66.62712097 17.52339172 C70.05903178 17.52108551 73.49007901 17.54730553 76.921875 17.57421875 C79.307472 17.57914289 81.69307287 17.58244161 84.07867432 17.58418274 C89.07194402 17.59181708 94.06492651 17.61236503 99.05810547 17.64331055 C105.46989872 17.6829707 111.88150549 17.7009336 118.29340744 17.71061993 C124.39875539 17.72057405 130.50405745 17.74047284 136.609375 17.76171875 C138.36493839 17.76681237 138.36493839 17.76681237 140.15596771 17.7720089 C143.45266742 17.78354092 146.74924674 17.80205322 150.04589844 17.82299805 C151.52176674 17.8270314 151.52176674 17.8270314 153.02745056 17.83114624 C153.92184341 17.83830154 154.81623627 17.84545685 155.73773193 17.85282898 C156.51715023 17.85710246 157.29656853 17.86137594 158.09960556 17.86577892 C160 18 160 18 162 19 C161.54252137 25.71037786 160.17866519 30.75214607 157.30859375 36.80078125 C156.93207672 37.62171265 156.55555969 38.44264404 156.16763306 39.28845215 C154.9356789 41.96857215 153.68643505 44.64025702 152.4375 47.3125 C151.56611639 49.20267349 150.69626446 51.09355379 149.82788086 52.98510742 C148.50112408 55.87454506 147.17344815 58.7635181 145.84101868 61.65034485 C141.83256421 70.33515224 137.93141154 79.06484438 134.0625 87.8125 C133.41643137 89.27009561 132.77018942 90.7276144 132.1237793 92.18505859 C130.78976286 95.19309312 129.4564365 98.20143214 128.12353516 101.20996094 C125.83987133 106.36293248 123.55115467 111.51365334 121.26171875 116.6640625 C120.85371536 117.58197571 120.44571198 118.49988892 120.02534485 119.44561768 C117.92738567 124.16517377 115.82883548 128.88446645 113.72973633 133.60351562 C109.7856903 142.47188815 105.84613551 151.34215519 101.92486572 160.22062683 C100.13279726 164.27742874 98.33791995 168.33298519 96.54284668 172.38845825 C95.69615404 174.30342982 94.85080627 176.21899672 94.00695801 178.13522339 C90.02161928 187.1843162 85.9980309 196.21310542 81.671875 205.10546875 C81.20312958 206.09345207 81.20312958 206.09345207 80.72491455 207.10139465 C78.94272868 210.6931253 77.45290079 212.95210796 74 215 C71.3550415 215.36076355 71.3550415 215.36076355 68.31347656 215.34057617 C67.17259583 215.34034958 66.03171509 215.34012299 64.85626221 215.33988953 C63.63010193 215.32440567 62.40394165 215.30892181 61.140625 215.29296875 C59.88111023 215.28872391 58.62159546 215.28447906 57.32391357 215.28010559 C53.98311462 215.26616121 50.64293416 215.23922925 47.30230713 215.20599365 C43.89039442 215.17524839 40.4784177 215.16159079 37.06640625 215.14648438 C30.37743351 215.11339814 23.68875246 215.06318524 17 215 C16.71801758 215.60199219 16.43603516 216.20398438 16.14550781 216.82421875 C2.36241877 243.00386274 -33.94279391 260.42906419 -60.7265625 268.75390625 C-101.31921231 280.8412944 -144.59480914 275.71561736 -181.84375 255.9921875 C-197.5731103 247.40870947 -211.6935076 235.9874685 -223.875 222.875 C-224.65218384 222.04029175 -224.65218384 222.04029175 -225.44506836 221.1887207 C-229 217.26029238 -229 217.26029238 -229 215 C-228.05833984 214.99191315 -227.11667969 214.98382629 -226.14648438 214.97549438 C-217.20394116 214.89748021 -208.26153984 214.80960982 -199.31918335 214.71247292 C-194.72356083 214.66285909 -190.1279575 214.61653087 -185.53222656 214.578125 C-181.08411873 214.54082499 -176.63618686 214.49435462 -172.18823242 214.44193649 C-170.50450781 214.42362675 -168.82074584 214.40843589 -167.13696289 214.39665604 C-152.63912984 214.29174924 -138.40306985 213.50389645 -124.4375 209.25 C-123.10356201 208.85312988 -123.10356201 208.85312988 -121.74267578 208.44824219 C-102.86642797 202.70877351 -84.47337708 194.38873303 -69 182 C-68.15308594 181.34257813 -67.30617188 180.68515625 -66.43359375 180.0078125 C-57.90449611 173.31474962 -49.84813492 166.43507224 -43 158 C-42.22785156 157.05382812 -41.45570313 156.10765625 -40.66015625 155.1328125 C-31.7712638 144.02602538 -24.48655178 132.14315763 -19 119 C-18.65453125 118.27554688 -18.3090625 117.55109375 -17.953125 116.8046875 C-9.87227284 98.96465235 -7.78370785 75.64887645 -14 57 C-20.35957804 41.18493422 -28.85738432 30.62585454 -44.875 23.75 C-56.48151615 19.60325266 -67.51712288 18.56984242 -79.71411133 18.65942383 C-81.35147587 18.66027207 -82.98884156 18.65979113 -84.62620544 18.65809631 C-89.03035625 18.65724261 -93.43425729 18.67476603 -97.83835053 18.69581819 C-102.45607852 18.71469024 -107.07381349 18.71634367 -111.6915741 18.71989441 C-120.41769017 18.72918415 -129.14369223 18.75375596 -137.86975831 18.78394288 C-147.81181339 18.81758299 -157.75387418 18.83399697 -167.69597208 18.84902918 C-188.13071146 18.88030856 -208.56534852 18.93300874 -229 19 C-228.06643722 17.73636683 -227.13019782 16.4747109 -226.19287109 15.21386719 C-225.67179779 14.51106628 -225.15072449 13.80826538 -224.61386108 13.08416748 C-202.01236163 -16.10379091 -164.8640518 -33.26915887 -129.1875 -39.3125 C-81.86510934 -44.65617929 -35.64815726 -31.92358667 0 0 Z " fill="#AAC1AA" transform="translate(706,376)"/>
<path d="M0 0 C1.23794312 -0.00700928 2.47588623 -0.01401855 3.75134277 -0.02124023 C7.14018288 -0.03581713 10.52804455 -0.03241694 13.91682959 -0.01972389 C17.46899041 -0.00957778 21.02111019 -0.01899445 24.57327271 -0.02526855 C30.54013549 -0.03254221 36.50680013 -0.02296681 42.47363281 -0.00390625 C49.36121116 0.01784222 56.24831548 0.0108251 63.13588226 -0.01121187 C69.05795294 -0.02939792 74.97988138 -0.03190803 80.90197098 -0.0214572 C84.4350912 -0.0152372 87.96798909 -0.0143447 91.50109482 -0.02760315 C95.44362367 -0.04136471 99.38562732 -0.02225954 103.328125 0 C104.49199738 -0.00809692 105.65586975 -0.01619385 106.85501099 -0.02453613 C113.3743509 0.04358781 117.5379706 0.53391296 122.79345703 4.51757812 C124.42626764 6.88285773 125.63237558 8.90402487 126.84423828 11.45898438 C127.18441483 12.13402512 127.52459137 12.80906586 127.87507629 13.50456238 C128.97043969 15.68777051 130.03793601 17.88338496 131.10595703 20.08007812 C131.86346982 21.60032709 132.62308613 23.11952968 133.38476562 24.63769531 C134.87478635 27.61138453 136.35619452 30.5890822 137.83007812 33.57080078 C140.11381304 38.17899564 142.49527639 42.73137141 144.91845703 47.26757812 C149.00952969 54.99203633 153.03095581 62.75210898 157.04345703 70.51757812 C157.35983124 71.12970154 157.67620544 71.74182495 158.00216675 72.37249756 C160.92582889 78.02928373 163.84815508 83.68675952 166.76953125 89.34472656 C168.36830845 92.44080912 169.96864274 95.53608276 171.56994629 98.63085938 C172.45642313 100.3451343 173.34127199 102.06025077 174.22607422 103.77539062 C176.47211447 108.11515191 178.71235698 112.43650397 181.18798828 116.65039062 C182.79345703 119.51757812 182.79345703 119.51757812 182.79345703 121.51757812 C191.27997351 116.24946514 199.503522 110.64294212 207.71289062 104.95703125 C210.40641264 103.09350088 213.105394 101.23799062 215.80517578 99.38354492 C217.13249296 98.47166629 218.45931493 97.55906642 219.78564453 96.64575195 C223.14920157 94.33001534 226.5183791 92.02329792 229.89892578 89.73242188 C236.00159383 85.5860174 242.00633668 81.41378405 247.79345703 76.83007812 C254.89724875 71.26633148 262.41191569 66.34872715 269.95361328 61.40161133 C275.78268706 57.56934001 281.4747956 53.60807793 287.09619141 49.47753906 C291.48896474 46.28554193 295.98434243 43.24816792 300.48095703 40.20507812 C302.41471628 38.89151965 304.34830898 37.57771595 306.28173828 36.26367188 C307.21969238 35.62671387 308.15764648 34.98975586 309.12402344 34.33349609 C312.81377054 31.82349619 316.49273094 29.29804969 320.16845703 26.76757812 C320.80122559 26.33243896 321.43399414 25.8972998 322.0859375 25.44897461 C325.3761904 23.18539229 328.66263171 20.91642294 331.94580078 18.64257812 C337.86030433 14.55036614 343.78105761 10.46502933 349.79345703 6.51757812 C350.57720703 6.00195312 351.36095703 5.48632812 352.16845703 4.95507812 C360.6608265 0.30449485 367.64439093 0.11114257 377.23095703 0.26757812 C378.52195312 0.27273438 379.81294922 0.27789062 381.14306641 0.28320312 C390.63909066 0.36321175 390.63909066 0.36321175 391.79345703 1.51757812 C392.14939449 4.47383648 392.21785863 5.95878269 390.38720703 8.36914062 C383.67577539 14.05382339 376.52177088 18.94913172 369.23779297 23.85742188 C364.55998973 27.03451557 359.93072263 30.2817466 355.29345703 33.51757812 C348.18848106 38.46718969 341.07213548 43.39886146 333.93017578 48.29492188 C328.03278869 52.34261933 322.16291039 56.42951528 316.29345703 60.51757812 C309.1880052 65.4665115 302.07214025 70.39885818 294.93017578 75.29492188 C289.03278689 79.34262057 283.16307493 83.42974899 277.29345703 87.51757812 C273.46067796 90.18504223 269.62734268 92.85170473 265.79345703 95.51757812 C265.01341309 96.0601123 264.23336914 96.60264648 263.4296875 97.16162109 C256.22379145 102.16702089 248.98193516 107.06332674 241.56811523 111.75805664 C232.68681627 117.43966659 224.11891619 123.59889869 215.48193359 129.64160156 C211.93175559 132.11885981 208.36525476 134.57164256 204.79345703 137.01757812 C198.27240403 141.487448 191.78089873 145.99908761 185.29345703 150.51757812 C178.18969128 155.46533715 171.07732929 160.39922904 163.93457031 165.29052734 C160.00635145 167.984478 156.09476468 170.70107073 152.19189453 173.43164062 C116.99370396 198.05055943 116.99370396 198.05055943 100.23095703 198.01757812 C98.91675781 198.0459375 97.60255859 198.07429687 96.24853516 198.10351562 C94.98332031 198.10609375 93.71810547 198.10867188 92.41455078 198.11132812 C91.26398193 198.11841797 90.11341309 198.12550781 88.92797852 198.1328125 C84.78674523 197.31998378 83.42929621 195.76097486 80.79345703 192.51757812 C79.07104492 189.79223633 79.07104492 189.79223633 77.51611328 186.81835938 C76.92757568 185.70509277 76.33903809 184.59182617 75.73266602 183.44482422 C75.10703764 182.23993934 74.48146957 181.03502315 73.85595703 179.83007812 C73.19428107 178.57255113 72.53158476 177.31556053 71.86791992 176.05908203 C70.50393804 173.47531751 69.14393473 170.88951929 67.78662109 168.30224609 C64.81204652 162.64206693 61.77016453 157.01823521 58.73095703 151.39257812 C57.57319121 149.2442558 56.41563925 147.0958182 55.25830078 144.94726562 C54.68708496 143.88733398 54.11586914 142.82740234 53.52734375 141.73535156 C50.61475438 136.33012376 47.70421473 130.92379245 44.79345703 125.51757812 C43.62680007 123.35090623 42.46013341 121.18423956 41.29345703 119.01757812 C20.29345703 80.01757813 20.29345703 80.01757813 18.54321289 76.76708984 C17.37739886 74.60202987 16.21154604 72.43699078 15.0456543 70.27197266 C12.11562281 64.83089477 9.18628177 59.38944724 6.25830078 53.94726562 C5.6745166 52.8628418 5.09073242 51.77841797 4.48925781 50.66113281 C3.32591378 48.49855992 2.16410537 46.33516018 1.00390625 44.17089844 C-1.94623811 38.6754495 -4.93062941 33.20305614 -7.97607422 27.75976562 C-8.5812085 26.66937988 -9.18634277 25.57899414 -9.80981445 24.45556641 C-10.96164684 22.38299822 -12.12340584 20.31590495 -13.29663086 18.25537109 C-13.81088623 17.32611816 -14.3251416 16.39686523 -14.85498047 15.43945312 C-15.31050293 14.63088867 -15.76602539 13.82232422 -16.23535156 12.98925781 C-17.46061648 9.87096169 -17.72502015 7.8378156 -17.20654297 4.51757812 C-12.67408802 -1.00499522 -6.55212461 -0.04542436 0 0 Z " fill="#000000" transform="translate(18.20654296875,393.482421875)"/>
<path d="M0 0 C-12.10584055 66.89367038 -39.18140442 129.87793742 -77.0625 186.1875 C-77.50343994 186.85313965 -77.94437988 187.5187793 -78.39868164 188.20458984 C-80.78910092 191.68820842 -82.10770205 193.05385102 -86 195 C-122.96 158.04 -159.92 121.08 -198 83 C-190 68 -190 68 -187.3828125 63.22265625 C-182.72367102 54.6900954 -178.56693701 46.03191512 -174.8125 37.0625 C-174.24329834 35.70813843 -174.24329834 35.70813843 -173.66259766 34.32641602 C-170.99915269 27.82253599 -168.65102917 21.22830171 -166.3425293 14.59155273 C-166.02002953 13.66713127 -165.69752975 12.74270981 -165.36525726 11.79027557 C-164.57588997 9.52717895 -163.78749591 7.26374835 -163 5 C-161.95668314 4.99641747 -161.95668314 4.99641747 -160.89228916 4.99276257 C-143.89539236 4.93338679 -126.89865216 4.85769465 -109.90190983 4.76428509 C-101.68209689 4.71949651 -93.46232564 4.68004381 -85.24243164 4.65356445 C-78.07022507 4.6304461 -70.89815234 4.5968966 -63.72605222 4.55129844 C-59.93549807 4.52755081 -56.14507492 4.50870218 -52.35444832 4.50238609 C-28.87191767 4.53852209 -28.87191767 4.53852209 -5.82752991 0.40434265 C-4 0 -4 0 0 0 Z " fill="#AAC1AA" transform="translate(1085,586)"/>
<path d="M0 0 C1.0411496 -0.00204437 2.08229919 -0.00408875 3.15499878 -0.00619507 C6.5922 -0.00920032 10.02892035 0.00926421 13.46606445 0.02832031 C15.85309226 0.03137797 18.24012184 0.03325404 20.62715149 0.03399658 C25.62634116 0.03859777 30.62536957 0.05301908 35.62451172 0.07519531 C42.04417821 0.10352336 48.46371792 0.11441162 54.88344097 0.11887741 C59.81007667 0.12302612 64.73668655 0.13283825 69.6633091 0.1447525 C72.03128667 0.15046311 74.39926674 0.15521919 76.76724815 0.15901947 C80.06883524 0.16586526 83.37032029 0.17948856 86.671875 0.1953125 C88.15009987 0.19698929 88.15009987 0.19698929 89.65818787 0.19869995 C90.55402588 0.2044101 91.44986389 0.21012024 92.37284851 0.21600342 C93.54392418 0.22046541 93.54392418 0.22046541 94.73865795 0.22501755 C96.6418457 0.35644531 96.6418457 0.35644531 98.6418457 1.35644531 C98.18436707 8.06682317 96.8205109 13.10859139 93.95043945 19.15722656 C93.57392242 19.97815796 93.1974054 20.79908936 92.80947876 21.64489746 C91.5775246 24.32501746 90.32828075 26.99670233 89.0793457 29.66894531 C88.2079621 31.55911881 87.33811016 33.4499991 86.46972656 35.34155273 C85.14296978 38.23099037 83.81529386 41.11996341 82.48286438 44.00679016 C78.47440991 52.69159756 74.57325725 61.4212897 70.7043457 70.16894531 C70.05827707 71.62654092 69.41203512 73.08405971 68.765625 74.54150391 C67.43160856 77.54953843 66.0982822 80.55787746 64.76538086 83.56640625 C62.48171703 88.71937779 60.19300037 93.87009866 57.90356445 99.02050781 C57.49556107 99.93842102 57.08755768 100.85633423 56.66719055 101.80206299 C54.56923137 106.52161908 52.47068118 111.24091176 50.37158203 115.95996094 C46.427536 124.82833347 42.48798121 133.6986005 38.56671143 142.57707214 C36.77464296 146.63387405 34.97976566 150.68943051 33.18469238 154.74490356 C32.33799974 156.65987513 31.49265197 158.57544203 30.64880371 160.4916687 C26.66346498 169.54076151 22.6398766 178.56955073 18.3137207 187.46191406 C18.00122375 188.12056961 17.68872681 188.77922516 17.36676025 189.45783997 C15.58481654 193.04908257 14.05860038 195.26250765 10.6418457 197.35644531 C8.46577168 197.72838211 8.46577168 197.72838211 6.06745911 197.72393799 C5.15467697 197.72950714 4.24189484 197.73507629 3.30145264 197.74081421 C2.30752502 197.73159943 1.31359741 197.72238464 0.28955078 197.71289062 C-1.28899437 197.71595718 -1.28899437 197.71595718 -2.89942932 197.71908569 C-6.37933703 197.72209498 -9.85877163 197.7036146 -13.33862305 197.68457031 C-15.75189598 197.68151342 -18.16517068 197.67963677 -20.57844543 197.67889404 C-25.6348852 197.67429035 -30.69116576 197.65985932 -35.74755859 197.63769531 C-42.2447013 197.60936756 -48.74171876 197.59847941 -55.23891735 197.59401321 C-60.2204159 197.58986689 -65.20188887 197.58005677 -70.1833744 197.56813812 C-72.58008938 197.56242255 -74.97680684 197.55766814 -77.37352562 197.55387115 C-80.71374261 197.54703454 -84.05385809 197.53341577 -87.39404297 197.51757812 C-88.39404327 197.51646027 -89.39404358 197.51534241 -90.42434692 197.51419067 C-91.32866959 197.50848053 -92.23299225 197.50277039 -93.16471863 197.49688721 C-93.9550307 197.49391254 -94.74534277 197.49093788 -95.55960369 197.48787308 C-97.3581543 197.35644531 -97.3581543 197.35644531 -98.3581543 196.35644531 C-98.75078877 190.46732474 -98.07578391 186.77168006 -95.4909668 181.36035156 C-95.18518204 180.70722992 -94.87939728 180.05410828 -94.56434631 179.38119507 C-93.89988231 177.96555417 -93.22864437 176.55307691 -92.55136108 175.14352417 C-90.68311897 171.25284312 -88.86699974 167.33773965 -87.04174805 163.42675781 C-86.65652481 162.60507614 -86.27130157 161.78339447 -85.87440491 160.93681335 C-81.99247213 152.63496623 -78.31353779 144.24850405 -74.65637207 135.84576416 C-68.13265134 120.85784021 -61.4900232 105.92816474 -54.7331543 91.04394531 C-48.99810868 78.40560134 -43.27480872 65.76267204 -37.628479 53.0843811 C-36.96523865 51.59553208 -36.30118055 50.10704697 -35.63616943 48.61898804 C-31.88381023 40.21933768 -28.24576735 31.78541749 -24.79644775 23.25621033 C-15.29550493 -0.14390774 -15.29550493 -0.14390774 0 0 Z " fill="#000000" transform="translate(769.358154296875,393.6435546875)"/>
<path d="M0 0 C1.20702576 0.00091644 2.41405151 0.00183289 3.65765381 0.0027771 C6.18880182 0.00877722 8.71994395 0.02441358 11.25097656 0.04931641 C15.11289759 0.08597093 18.97386003 0.09033399 22.8359375 0.08984375 C25.30729991 0.09967155 27.77865587 0.11132708 30.25 0.125 C31.96899506 0.12833847 31.96899506 0.12833847 33.72271729 0.13174438 C42.44218477 0.23458705 49.81607604 0.75921929 56.859375 6.4609375 C59.93489857 11.39763451 59.54331708 17.12497511 58.40478516 22.67822266 C57.74850084 24.91807086 56.99018468 27.08756088 56.171875 29.2734375 C55.87007324 30.10746094 55.56827148 30.94148438 55.25732422 31.80078125 C50.90538418 43.46759492 45.59742687 54.75447358 40.40478516 66.06445312 C39.03009576 69.08572941 37.68970904 72.11800122 36.37109375 75.1640625 C27.52487106 95.553527 16.6258615 118.42768528 -5.328125 127.3359375 C-12.88667333 129.56632881 -20.15562326 129.63331119 -27.98828125 129.6640625 C-29.11834091 129.66976257 -30.24840057 129.67546265 -31.41270447 129.68133545 C-33.79376294 129.69075109 -36.17483425 129.69730571 -38.5559082 129.70117188 C-42.19440251 129.71091415 -45.83234027 129.74198545 -49.47070312 129.7734375 C-51.78905916 129.77996484 -54.10741921 129.78521636 -56.42578125 129.7890625 C-57.51029068 129.8014093 -58.59480011 129.8137561 -59.71217346 129.82647705 C-65.25593299 129.81013437 -69.3960487 129.68418427 -74.140625 126.4609375 C-78.86919909 120.50643679 -80.55331993 112.90232855 -80.140625 105.4609375 C-79.36802192 102.16632956 -78.29798381 98.99927489 -77.1875 95.8046875 C-76.7180899 94.42947937 -76.7180899 94.42947937 -76.23919678 93.02648926 C-72.78639403 83.12109856 -68.66933993 73.53242674 -64.390625 63.9609375 C-63.99600067 63.07250153 -63.60137634 62.18406555 -63.1947937 61.26870728 C-45.67372621 21.85990838 -45.67372621 21.85990838 -33.140625 10.4609375 C-32.46515625 9.83058594 -31.7896875 9.20023437 -31.09375 8.55078125 C-22.20964892 1.08005989 -11.19242565 -0.14135403 0 0 Z " fill="#AAC1AA" transform="translate(529.140625,427.5390625)"/>
<path d="M0 0 C1.31226563 -0.00960754 2.62453125 -0.01921509 3.9765625 -0.02911377 C5.42317532 -0.03396433 6.86979016 -0.03824253 8.31640625 -0.04199219 C9.79557294 -0.04774457 11.2747396 -0.05350229 12.75390625 -0.05926514 C15.86442411 -0.0697914 18.97491604 -0.07562185 22.08544922 -0.07910156 C26.0519152 -0.08455736 30.01803284 -0.10851514 33.98439026 -0.13707352 C37.04552161 -0.15580479 40.10657133 -0.16091127 43.16775513 -0.16243744 C44.62844729 -0.16544632 46.08913863 -0.17341458 47.54977417 -0.18662262 C65.48372505 -0.33707263 65.48372505 -0.33707263 72.94140625 5.59863281 C76.27180048 10.38461893 75.63812608 15.6352948 74.87890625 21.16113281 C74.12744188 23.90249576 73.33189329 26.55048782 72.41796875 29.23535156 C72.02536613 30.3977964 72.02536613 30.3977964 71.62483215 31.58372498 C68.50172264 40.57978328 64.68961021 49.26933874 60.80297852 57.95678711 C59.56800137 60.72006371 58.34859271 63.48982998 57.13085938 66.26074219 C53.33970857 74.83173541 49.4200424 83.30512202 45.05078125 91.59863281 C44.69614304 92.27297867 44.34150482 92.94732452 43.97612 93.6421051 C35.51837903 109.36446925 23.93885259 122.59287068 6.62242126 128.21920776 C2.91483923 129.15209153 -0.16270534 129.40281569 -3.97436523 129.38818359 C-4.61912308 129.38847565 -5.26388092 129.3887677 -5.92817688 129.3890686 C-8.03299001 129.38768908 -10.13743717 129.37219409 -12.2421875 129.35644531 C-13.71191718 129.35271026 -15.18164937 129.34986562 -16.65138245 129.34786987 C-20.49993898 129.34027212 -24.34834204 129.32065728 -28.19683838 129.29846191 C-32.13185552 129.27791989 -36.0668977 129.26885037 -40.00195312 129.25878906 C-47.70840293 129.23740732 -55.41472675 129.2033186 -63.12109375 129.16113281 C-58.37064226 117.40834882 -53.36040268 105.78949276 -48.18765259 94.21679688 C-46.89591312 91.3268312 -45.60716683 88.43554597 -44.3190918 85.54394531 C-42.50683706 81.47637838 -40.69341985 77.40933321 -38.87890625 73.34277344 C-34.81748749 64.24016356 -30.76158143 55.13510549 -26.70980835 46.02819824 C-25.47749683 43.25976278 -24.24334943 40.49215148 -23.0090332 37.72460938 C-18.56066353 27.73611629 -14.18650553 17.72084074 -9.93489075 7.64672852 C-9.58021225 6.81101318 -9.22553375 5.97529785 -8.86010742 5.11425781 C-8.54756516 4.37336914 -8.23502289 3.63248047 -7.91300964 2.86914062 C-6.19045805 -0.8460665 -3.87187267 0.02277335 0 0 Z " fill="#AAC1AA" transform="translate(1002.12109375,427.8388671875)"/>
</svg>
